<svg width="44" height="44" viewBox="0 0 44 44" fill="none" xmlns="http://www.w3.org/2000/svg">
<path d="M42.94 13.641C42 13.1487 41.02 12.7385 40 12.3897V37.0667C37.72 36.2256 35.38 35.7949 33 35.7949C29.2 35.7949 25.44 36.9026 22 39.0359V14.2154C18.76 12.3077 15.02 11.1795 11 11.1795C7.42 11.1795 4.04 12.0821 1.06 13.641C0.4 13.9692 0 14.6872 0 15.4462V40.2256C0 41.4154 0.94 42.2564 2 42.2564C2.32 42.2564 2.64 42.1744 2.96 42.0103C5.38 40.718 8.1 39.8974 11 39.8974C15.14 39.8974 18.96 41.5795 22 44C25.04 41.5795 28.86 39.8974 33 39.8974C35.9 39.8974 38.62 40.718 41.04 42.0308C41.36 42.1949 41.68 42.2769 42 42.2769C43.04 42.2769 44 41.4359 44 40.2462V15.4462C44 14.6872 43.6 13.9692 42.94 13.641ZM18 37.0667C15.72 36.2256 13.38 35.7949 11 35.7949C8.62 35.7949 6.28 36.2256 4 37.0667V16.7385C6.22 15.7744 8.56 15.2821 11 15.2821C13.4 15.2821 15.78 15.7949 18 16.759V37.0667ZM36 4L26 14.2564V33.7436L36 24.5128V4Z" fill="#4F2EE8"/>
</svg>
