<svg aria-hidden="true" style="position: absolute; width: 0; height: 0; overflow: hidden;" version="1.1" xmlns="http://www.w3.org/2000/svg" xmlns:xlink="http://www.w3.org/1999/xlink">
<defs>
<symbol id="icon-signup-arrow-desk" viewBox="0 0 32 32">
<path fill="none" stroke="#eac645" style="stroke: var(--color1, #eac645)" stroke-linejoin="round" stroke-linecap="round" stroke-miterlimit="4" stroke-width="3.2" d="M5.333 16h21.333M26.667 16l-8-8M26.667 16l-8 8"></path>
</symbol>
<symbol id="icon-arrow-signin-mob" viewBox="0 0 32 32">
<path fill="none" stroke="#eac645" style="stroke: var(--color1, #eac645)" stroke-linejoin="round" stroke-linecap="round" stroke-miterlimit="4" stroke-width="3.2" d="M5.333 16h21.333M26.666 16l-8-8M26.666 16l-8 8"></path>
</symbol>
<symbol id="icon-support-arrow-tab" viewBox="0 0 32 32">
<path fill="#4f2ee8" style="fill: var(--color2, #4f2ee8)" d="M15.053 17.867c0.124 0.125 0.271 0.224 0.434 0.292s0.337 0.103 0.513 0.103c0.176 0 0.35-0.035 0.513-0.103s0.31-0.167 0.434-0.292l6.107-6.12c0.124-0.125 0.271-0.224 0.434-0.292s0.337-0.103 0.513-0.103c0.176 0 0.35 0.035 0.513 0.103s0.31 0.167 0.434 0.292c0.248 0.25 0.388 0.588 0.388 0.94s-0.139 0.69-0.388 0.94l-6.12 6.12c-0.75 0.749-1.767 1.17-2.827 1.17s-2.077-0.421-2.827-1.17l-6.12-6.12c-0.246-0.248-0.385-0.584-0.387-0.933-0.001-0.175 0.033-0.349 0.099-0.512s0.164-0.31 0.288-0.435c0.124-0.125 0.271-0.224 0.434-0.292s0.337-0.103 0.513-0.103c0.176 0 0.35 0.035 0.513 0.103s0.31 0.167 0.434 0.292l6.107 6.12z"></path>
</symbol>
<symbol id="icon-sidebar-arrow-desk" viewBox="0 0 32 32">
<path fill="#4f2ee8" style="fill: var(--color2, #4f2ee8)" d="M15.053 17.867c0.124 0.125 0.271 0.224 0.434 0.292s0.337 0.103 0.513 0.103c0.176 0 0.35-0.035 0.513-0.103s0.31-0.167 0.434-0.292l6.107-6.12c0.124-0.125 0.271-0.224 0.434-0.292s0.337-0.103 0.513-0.103c0.176 0 0.35 0.035 0.513 0.103s0.31 0.167 0.434 0.292c0.248 0.25 0.388 0.588 0.388 0.94s-0.139 0.69-0.388 0.94l-6.12 6.12c-0.75 0.749-1.767 1.17-2.827 1.17s-2.077-0.421-2.827-1.17l-6.12-6.12c-0.246-0.248-0.385-0.584-0.387-0.933-0.001-0.175 0.033-0.349 0.099-0.512s0.164-0.31 0.288-0.435c0.124-0.125 0.271-0.224 0.434-0.292s0.337-0.103 0.513-0.103c0.176 0 0.35 0.035 0.513 0.103s0.31 0.167 0.434 0.292l6.107 6.12z"></path>
</symbol>
<symbol id="icon-arrow-support-mob" viewBox="0 0 32 32">
<path fill="#4f2ee8" style="fill: var(--color2, #4f2ee8)" d="M15.053 17.867c0.124 0.125 0.271 0.224 0.434 0.292s0.337 0.102 0.513 0.102 0.35-0.035 0.513-0.102c0.162-0.068 0.31-0.167 0.434-0.292l6.107-6.12c0.124-0.125 0.272-0.224 0.434-0.292s0.337-0.103 0.513-0.103 0.35 0.035 0.513 0.103c0.162 0.068 0.31 0.167 0.434 0.292 0.248 0.25 0.388 0.588 0.388 0.94s-0.139 0.69-0.388 0.94l-6.12 6.12c-0.75 0.749-1.767 1.17-2.827 1.17s-2.077-0.421-2.827-1.17l-6.12-6.12c-0.246-0.248-0.385-0.584-0.387-0.933-0.001-0.175 0.033-0.349 0.099-0.512s0.164-0.31 0.288-0.435c0.124-0.125 0.271-0.224 0.434-0.292s0.337-0.103 0.513-0.103c0.176 0 0.35 0.035 0.513 0.103s0.31 0.167 0.434 0.292l6.107 6.12z"></path>
</symbol>
<symbol id="icon-logo-mob" viewBox="0 0 32 32">
<path fill="#f6f6f6" style="fill: var(--color3, #f6f6f6)" d="M0 0l16.343 16.171 15.657 15.829v-32h-32z"></path>
<path fill="#f6f6f6" style="fill: var(--color3, #f6f6f6)" d="M4.457 4.229l11.943 11.829 11.257 11.486h-23.2v-23.314z"></path>
<path fill="#4f2ee8" style="fill: var(--color2, #4f2ee8)" d="M27.733 27.618l-11.943-11.829-11.257-11.486h23.2v23.314z"></path>
<path fill="#4f2ee8" style="fill: var(--color2, #4f2ee8)" d="M9.257 9.029l13.6 13.6h-13.6v-13.6z"></path>
<path fill="#f6f6f6" style="fill: var(--color3, #f6f6f6)" d="M9.257 9.029l13.6 13.6v-13.6h-13.6z"></path>
</symbol>
<symbol id="icon-header-logo-desk" viewBox="0 0 32 32">
<path fill="#f6f6f6" style="fill: var(--color3, #f6f6f6)" d="M0 0l16.343 16.171 15.657 15.829v-32h-32z"></path>
<path fill="#f6f6f6" style="fill: var(--color3, #f6f6f6)" d="M4.457 4.229l11.943 11.829 11.257 11.486h-23.2v-23.314z"></path>
<path fill="#4f2ee8" style="fill: var(--color2, #4f2ee8)" d="M27.733 27.618l-11.943-11.829-11.257-11.486h23.2v23.314z"></path>
<path fill="#4f2ee8" style="fill: var(--color2, #4f2ee8)" d="M9.257 9.029l13.6 13.6h-13.6v-13.6z"></path>
<path fill="#f6f6f6" style="fill: var(--color3, #f6f6f6)" d="M9.257 9.029l13.6 13.6v-13.6h-13.6z"></path>
</symbol>
<symbol id="icon-logo-tab" viewBox="0 0 32 32">
<path fill="#f6f6f6" style="fill: var(--color3, #f6f6f6)" d="M0 0l16.343 16.171 15.657 15.829v-32h-32z"></path>
<path fill="#f6f6f6" style="fill: var(--color3, #f6f6f6)" d="M4.457 4.229l11.943 11.829 11.257 11.486h-23.2v-23.314z"></path>
<path fill="#4f2ee8" style="fill: var(--color2, #4f2ee8)" d="M27.733 27.618l-11.943-11.829-11.257-11.486h23.2v23.314z"></path>
<path fill="#4f2ee8" style="fill: var(--color2, #4f2ee8)" d="M9.257 9.029l13.6 13.6h-13.6v-13.6z"></path>
<path fill="#f6f6f6" style="fill: var(--color3, #f6f6f6)" d="M9.257 9.029l13.6 13.6v-13.6h-13.6z"></path>
</symbol>
<symbol id="icon-delete-shoppinglist-tab" viewBox="0 0 32 32">
<path stroke-linejoin="round" stroke-linecap="round" stroke-miterlimit="4" stroke-width="2.6667" d="M12 4h8M4 8h24M25.333 8l-0.935 14.026c-0.14 2.104-0.21 3.156-0.665 3.954-0.4 0.702-1.004 1.267-1.731 1.62-0.826 0.4-1.881 0.4-3.99 0.4h-4.025c-2.109 0-3.163 0-3.99-0.4-0.727-0.353-1.331-0.917-1.731-1.62-0.455-0.798-0.525-1.85-0.665-3.954l-0.935-14.026M13.333 14v6.667M18.667 14v6.667"></path>
</symbol>
<symbol id="icon-delete-shoppinglist-desk" viewBox="0 0 32 32">
<path stroke-linejoin="round" stroke-linecap="round" stroke-miterlimit="4" stroke-width="3" d="M11.5 2.5h9M2.5 7h27M26.5 7l-1.052 15.779c-0.158 2.367-0.237 3.551-0.748 4.449-0.45 0.79-1.129 1.425-1.948 1.822-0.929 0.45-2.116 0.45-4.488 0.45h-4.528c-2.373 0-3.559 0-4.488-0.45-0.818-0.397-1.497-1.032-1.948-1.822-0.511-0.898-0.59-2.081-0.748-4.449l-1.052-15.779M13 13.75v7.5M19 13.75v7.5"></path>
</symbol>
<symbol id="icon-delete-shopinglist-mob" viewBox="0 0 32 32">
<path stroke-linejoin="round" stroke-linecap="round" stroke-miterlimit="4" stroke-width="2" d="M12 4h8M4 8h24M25.333 8l-0.935 14.026c-0.14 2.104-0.21 3.156-0.665 3.954-0.4 0.702-1.004 1.267-1.731 1.62-0.826 0.4-1.881 0.4-3.99 0.4h-4.025c-2.109 0-3.163 0-3.99-0.4-0.727-0.353-1.331-0.917-1.731-1.62-0.455-0.798-0.525-1.85-0.665-3.954l-0.935-14.026M13.333 14v6.667M18.667 14v6.667"></path>
</symbol>
<symbol id="icon-icon-close-desk" viewBox="0 0 32 32">
<path stroke-linejoin="round" stroke-linecap="round" stroke-miterlimit="4" stroke-width="3.4286" d="M24 8l-16 16M8 8l16 16"></path>
</symbol>
<symbol id="icon-mail-input-desk" viewBox="0 0 32 32">
<path stroke-linejoin="round" stroke-linecap="round" stroke-miterlimit="4" stroke-width="2.2857" d="M28.667 24l-8.857-8M12.191 16l-8.857 8M2.667 9.333l10.886 7.621c0.882 0.617 1.322 0.926 1.802 1.045 0.424 0.106 0.866 0.106 1.29 0 0.479-0.12 0.92-0.428 1.802-1.045l10.887-7.621M9.067 26.667h13.867c2.24 0 3.36 0 4.216-0.436 0.753-0.384 1.365-0.995 1.748-1.748 0.436-0.856 0.436-1.976 0.436-4.216v-8.533c0-2.24 0-3.36-0.436-4.216-0.384-0.753-0.995-1.365-1.748-1.748-0.856-0.436-1.976-0.436-4.216-0.436h-13.867c-2.24 0-3.36 0-4.216 0.436-0.753 0.383-1.365 0.995-1.748 1.748-0.436 0.856-0.436 1.976-0.436 4.216v8.533c0 2.24 0 3.36 0.436 4.216 0.384 0.753 0.995 1.365 1.748 1.748 0.856 0.436 1.976 0.436 4.216 0.436z"></path>
</symbol>
<symbol id="icon-password-input-desk" viewBox="0 0 32 32">
<path stroke-linejoin="round" stroke-linecap="round" stroke-miterlimit="4" stroke-width="2.2857" d="M22.667 14.667v-4c0-3.682-2.985-6.667-6.667-6.667s-6.667 2.985-6.667 6.667v4M10.4 28h11.2c2.24 0 3.36 0 4.216-0.436 0.753-0.383 1.365-0.995 1.748-1.748 0.436-0.856 0.436-1.976 0.436-4.216v-0.533c0-2.24 0-3.36-0.436-4.216-0.383-0.753-0.995-1.365-1.748-1.748-0.856-0.436-1.976-0.436-4.216-0.436h-11.2c-2.24 0-3.36 0-4.216 0.436-0.753 0.384-1.365 0.995-1.748 1.748-0.436 0.856-0.436 1.976-0.436 4.216v0.533c0 2.24 0 3.36 0.436 4.216 0.383 0.753 0.995 1.365 1.748 1.748 0.856 0.436 1.976 0.436 4.216 0.436z"></path>
</symbol>
<symbol id="icon-shopping-icon-header-desk" viewBox="0 0 32 32">
<path d="M25.333 9.333h-4v-1.333c0-1.414-0.562-2.771-1.562-3.771s-2.357-1.562-3.771-1.562c-1.414 0-2.771 0.562-3.771 1.562s-1.562 2.357-1.562 3.771v1.333h-4c-0.354 0-0.693 0.14-0.943 0.391s-0.391 0.589-0.391 0.943v14.667c0 1.061 0.421 2.078 1.172 2.828s1.768 1.172 2.828 1.172h13.333c1.061 0 2.078-0.421 2.828-1.172s1.172-1.768 1.172-2.828v-14.667c0-0.354-0.14-0.693-0.391-0.943s-0.589-0.391-0.943-0.391zM13.333 8c0-0.707 0.281-1.386 0.781-1.886s1.178-0.781 1.886-0.781c0.707 0 1.385 0.281 1.886 0.781s0.781 1.178 0.781 1.886v1.333h-5.333v-1.333zM24 25.333c0 0.354-0.14 0.693-0.391 0.943s-0.589 0.39-0.943 0.39h-13.333c-0.354 0-0.693-0.14-0.943-0.39s-0.391-0.589-0.391-0.943v-13.333h2.667v1.333c0 0.354 0.14 0.693 0.391 0.943s0.589 0.391 0.943 0.391c0.354 0 0.693-0.14 0.943-0.391s0.391-0.589 0.391-0.943v-1.333h5.333v1.333c0 0.354 0.14 0.693 0.39 0.943s0.589 0.391 0.943 0.391 0.693-0.14 0.943-0.391c0.25-0.25 0.391-0.589 0.391-0.943v-1.333h2.667v13.333z"></path>
</symbol>
<symbol id="icon-to-shoppingcart-desk" viewBox="0 0 32 32">
<path d="M25.334 9.333h-4v-1.333c0-1.415-0.562-2.771-1.562-3.771s-2.357-1.562-3.771-1.562c-1.415 0-2.771 0.562-3.771 1.562s-1.562 2.357-1.562 3.771v1.333h-4c-0.354 0-0.693 0.14-0.943 0.391s-0.391 0.589-0.391 0.943v14.667c0 1.061 0.421 2.078 1.172 2.828s1.768 1.172 2.828 1.172h13.333c1.061 0 2.078-0.421 2.828-1.172s1.172-1.768 1.172-2.828v-14.667c0-0.354-0.14-0.693-0.391-0.943s-0.589-0.391-0.943-0.391zM13.334 8c0-0.707 0.281-1.386 0.781-1.886s1.178-0.781 1.886-0.781c0.707 0 1.385 0.281 1.886 0.781s0.781 1.178 0.781 1.886v1.333h-5.333v-1.333zM24 25.333c0 0.354-0.14 0.693-0.391 0.943s-0.589 0.391-0.943 0.391h-13.333c-0.354 0-0.693-0.14-0.943-0.391s-0.391-0.589-0.391-0.943v-13.333h2.667v1.333c0 0.354 0.14 0.693 0.391 0.943s0.589 0.391 0.943 0.391c0.354 0 0.693-0.14 0.943-0.391s0.39-0.589 0.39-0.943v-1.333h5.333v1.333c0 0.354 0.14 0.693 0.391 0.943s0.589 0.391 0.943 0.391c0.354 0 0.693-0.14 0.943-0.391s0.391-0.589 0.391-0.943v-1.333h2.667v13.333z"></path>
</symbol>
<symbol id="icon-burger" viewBox="0 0 32 32">
<path stroke-linejoin="round" stroke-linecap="round" stroke-miterlimit="4" stroke-width="2.2857" d="M22.667 13.333h-18.667"></path>
<path stroke-linejoin="round" stroke-linecap="round" stroke-miterlimit="4" stroke-width="2.2857" d="M28 8h-24"></path>
<path stroke-linejoin="round" stroke-linecap="round" stroke-miterlimit="4" stroke-width="2.2857" d="M28 18.667h-24"></path>
<path stroke-linejoin="round" stroke-linecap="round" stroke-miterlimit="4" stroke-width="2.2857" d="M22.667 24h-18.667"></path>
</symbol>
<symbol id="icon-close-mob" viewBox="0 0 32 32">
<path stroke-linejoin="round" stroke-linecap="round" stroke-miterlimit="4" stroke-width="3.4286" d="M24 8l-16 16M8 8l16 16"></path>
</symbol>
<symbol id="icon-close-modal-mob" viewBox="0 0 32 32">
<path stroke-linejoin="round" stroke-linecap="round" stroke-miterlimit="4" stroke-width="3.3333" d="M24 8l-16 16M8 8l16 16"></path>
</symbol>
<symbol id="icon-shopinglist-mob" viewBox="0 0 32 32">
<path d="M26.37 8.593h-4.444v-1.481c0-1.572-0.624-3.079-1.736-4.19s-2.619-1.736-4.19-1.736c-1.572 0-3.079 0.624-4.19 1.736s-1.736 2.619-1.736 4.19v1.481h-4.444c-0.393 0-0.77 0.156-1.048 0.434s-0.434 0.655-0.434 1.048v16.296c0 1.179 0.468 2.309 1.302 3.143s1.964 1.302 3.143 1.302h14.815c1.179 0 2.309-0.468 3.143-1.302s1.302-1.964 1.302-3.143v-16.296c0-0.393-0.156-0.77-0.434-1.048s-0.655-0.434-1.048-0.434zM13.036 7.111c0-0.786 0.312-1.539 0.868-2.095s1.309-0.868 2.095-0.868c0.786 0 1.539 0.312 2.095 0.868s0.868 1.309 0.868 2.095v1.481h-5.926v-1.481zM24.888 26.37c0 0.393-0.156 0.77-0.434 1.047s-0.655 0.434-1.048 0.434h-14.815c-0.393 0-0.77-0.156-1.048-0.434s-0.434-0.655-0.434-1.047v-14.815h2.963v1.481c0 0.393 0.156 0.77 0.434 1.048s0.655 0.434 1.048 0.434c0.393 0 0.77-0.156 1.048-0.434s0.434-0.655 0.434-1.048v-1.481h5.926v1.481c0 0.393 0.156 0.77 0.434 1.048s0.655 0.434 1.048 0.434c0.393 0 0.77-0.156 1.048-0.434s0.434-0.655 0.434-1.048v-1.481h2.963v14.815z"></path>
</symbol>
<symbol id="icon-modal-close-tab" viewBox="0 0 32 32">
<path stroke-linejoin="round" stroke-linecap="round" stroke-miterlimit="4" stroke-width="3.4286" d="M24 8l-16 16M8 8l16 16"></path>
</symbol>
<symbol id="icon-to-shoppingcard-tab" viewBox="0 0 32 32">
<path d="M25.334 9.333h-4v-1.333c0-1.415-0.562-2.771-1.562-3.771s-2.357-1.562-3.771-1.562c-1.415 0-2.771 0.562-3.771 1.562s-1.562 2.357-1.562 3.771v1.333h-4c-0.354 0-0.693 0.14-0.943 0.391s-0.391 0.589-0.391 0.943v14.667c0 1.061 0.421 2.078 1.172 2.828s1.768 1.172 2.828 1.172h13.333c1.061 0 2.078-0.421 2.828-1.172s1.172-1.768 1.172-2.828v-14.667c0-0.354-0.14-0.693-0.391-0.943s-0.589-0.391-0.943-0.391zM13.334 8c0-0.707 0.281-1.386 0.781-1.886s1.178-0.781 1.886-0.781c0.707 0 1.385 0.281 1.886 0.781s0.781 1.178 0.781 1.886v1.333h-5.333v-1.333zM24 25.333c0 0.354-0.14 0.693-0.391 0.943s-0.589 0.391-0.943 0.391h-13.333c-0.354 0-0.693-0.14-0.943-0.391s-0.391-0.589-0.391-0.943v-13.333h2.667v1.333c0 0.354 0.14 0.693 0.391 0.943s0.589 0.391 0.943 0.391c0.354 0 0.693-0.14 0.943-0.391s0.39-0.589 0.39-0.943v-1.333h5.333v1.333c0 0.354 0.14 0.693 0.391 0.943s0.589 0.391 0.943 0.391c0.354 0 0.693-0.14 0.943-0.391s0.391-0.589 0.391-0.943v-1.333h2.667v13.333z"></path>
</symbol>
<symbol id="icon-supportukraine" viewBox="0 0 193 32">
<path fill="#fff" style="fill: var(--color1, #fff)" d="M6.754 24.264c-1.129 0-2.127-0.191-2.992-0.572-0.865-0.396-1.547-0.953-2.046-1.672-0.499-0.733-0.755-1.621-0.77-2.662h2.97c0.029 0.719 0.286 1.327 0.77 1.826 0.499 0.484 1.181 0.726 2.046 0.726 0.748 0 1.342-0.176 1.782-0.528 0.44-0.367 0.66-0.851 0.66-1.452 0-0.631-0.198-1.122-0.594-1.474-0.381-0.352-0.895-0.638-1.54-0.858s-1.335-0.455-2.068-0.704c-1.188-0.411-2.097-0.939-2.728-1.584-0.616-0.645-0.924-1.503-0.924-2.574-0.015-0.909 0.198-1.687 0.638-2.332 0.455-0.66 1.071-1.166 1.848-1.518 0.777-0.367 1.672-0.55 2.684-0.55 1.027 0 1.929 0.183 2.706 0.55 0.792 0.367 1.408 0.88 1.848 1.54 0.455 0.66 0.697 1.445 0.726 2.354h-3.014c-0.015-0.543-0.227-1.019-0.638-1.43-0.396-0.425-0.953-0.638-1.672-0.638-0.616-0.015-1.137 0.139-1.562 0.462-0.411 0.308-0.616 0.763-0.616 1.364 0 0.513 0.161 0.924 0.484 1.232 0.323 0.293 0.763 0.543 1.32 0.748s1.195 0.425 1.914 0.66c0.763 0.264 1.459 0.572 2.090 0.924s1.137 0.821 1.518 1.408c0.381 0.572 0.572 1.313 0.572 2.222 0 0.807-0.205 1.555-0.616 2.244s-1.019 1.247-1.826 1.672c-0.807 0.411-1.797 0.616-2.97 0.616zM17.769 24.264c-1.364 0-2.42-0.425-3.168-1.276-0.733-0.851-1.1-2.097-1.1-3.74v-6.16h2.794v5.896c0 0.939 0.191 1.657 0.572 2.156s0.983 0.748 1.804 0.748c0.777 0 1.415-0.279 1.914-0.836 0.513-0.557 0.77-1.335 0.77-2.332v-5.632h2.816v10.912h-2.486l-0.22-1.848c-0.337 0.645-0.829 1.159-1.474 1.54-0.631 0.381-1.371 0.572-2.222 0.572zM26.182 28.84v-15.752h2.508l0.308 1.562c0.352-0.484 0.814-0.909 1.386-1.276 0.587-0.367 1.342-0.55 2.266-0.55 1.027 0 1.943 0.249 2.75 0.748s1.445 1.181 1.914 2.046c0.469 0.865 0.704 1.848 0.704 2.948s-0.235 2.083-0.704 2.948c-0.469 0.851-1.107 1.525-1.914 2.024-0.807 0.484-1.723 0.726-2.75 0.726-0.821 0-1.54-0.154-2.156-0.462s-1.115-0.741-1.496-1.298v6.336h-2.816zM32.056 21.8c0.895 0 1.635-0.301 2.222-0.902s0.88-1.379 0.88-2.332-0.293-1.738-0.88-2.354c-0.587-0.616-1.327-0.924-2.222-0.924-0.909 0-1.657 0.308-2.244 0.924-0.572 0.601-0.858 1.379-0.858 2.332s0.286 1.738 0.858 2.354c0.587 0.601 1.335 0.902 2.244 0.902zM39.653 28.84v-15.752h2.508l0.308 1.562c0.352-0.484 0.814-0.909 1.386-1.276 0.587-0.367 1.342-0.55 2.266-0.55 1.027 0 1.943 0.249 2.75 0.748s1.445 1.181 1.914 2.046c0.469 0.865 0.704 1.848 0.704 2.948s-0.235 2.083-0.704 2.948c-0.469 0.851-1.107 1.525-1.914 2.024-0.807 0.484-1.723 0.726-2.75 0.726-0.821 0-1.54-0.154-2.156-0.462s-1.115-0.741-1.496-1.298v6.336h-2.816zM45.527 21.8c0.895 0 1.635-0.301 2.222-0.902s0.88-1.379 0.88-2.332-0.293-1.738-0.88-2.354c-0.587-0.616-1.327-0.924-2.222-0.924-0.909 0-1.657 0.308-2.244 0.924-0.572 0.601-0.858 1.379-0.858 2.332s0.286 1.738 0.858 2.354c0.587 0.601 1.335 0.902 2.244 0.902zM58.361 24.264c-1.056 0-2.009-0.242-2.86-0.726-0.836-0.484-1.503-1.151-2.002-2.002-0.484-0.865-0.726-1.863-0.726-2.992s0.249-2.119 0.748-2.97c0.499-0.865 1.166-1.54 2.002-2.024 0.851-0.484 1.804-0.726 2.86-0.726 1.041 0 1.98 0.242 2.816 0.726 0.851 0.484 1.518 1.159 2.002 2.024 0.499 0.851 0.748 1.841 0.748 2.97s-0.249 2.127-0.748 2.992c-0.484 0.851-1.151 1.518-2.002 2.002s-1.797 0.726-2.838 0.726zM58.361 21.822c0.733 0 1.371-0.271 1.914-0.814 0.543-0.557 0.814-1.379 0.814-2.464s-0.271-1.899-0.814-2.442c-0.543-0.557-1.173-0.836-1.892-0.836-0.748 0-1.393 0.279-1.936 0.836-0.528 0.543-0.792 1.357-0.792 2.442s0.264 1.907 0.792 2.464c0.543 0.543 1.181 0.814 1.914 0.814zM65.587 24v-10.912h2.508l0.264 2.046c0.396-0.704 0.931-1.261 1.606-1.672 0.689-0.425 1.496-0.638 2.42-0.638v2.97h-0.792c-0.616 0-1.166 0.095-1.65 0.286s-0.865 0.521-1.144 0.99c-0.264 0.469-0.396 1.122-0.396 1.958v4.972h-2.816zM78.291 24c-1.144 0-2.061-0.279-2.75-0.836s-1.034-1.547-1.034-2.97v-4.752h-1.87v-2.354h1.87l0.33-2.926h2.486v2.926h2.948v2.354h-2.948v4.774c0 0.528 0.11 0.895 0.33 1.1 0.235 0.191 0.631 0.286 1.188 0.286h1.364v2.398h-1.914zM92.177 24.264c-1.129 0-2.149-0.22-3.058-0.66-0.909-0.455-1.635-1.137-2.178-2.046-0.528-0.909-0.792-2.061-0.792-3.454v-9.504h2.816v9.526c0 1.203 0.286 2.097 0.858 2.684 0.587 0.587 1.393 0.88 2.42 0.88 1.012 0 1.811-0.293 2.398-0.88s0.88-1.481 0.88-2.684v-9.526h2.816v9.504c0 1.393-0.279 2.545-0.836 3.454s-1.305 1.591-2.244 2.046c-0.924 0.44-1.951 0.66-3.080 0.66zM100.266 24v-15.84h2.816v9.35l3.872-4.422h3.344l-4.466 4.972 5.192 5.94h-3.52l-4.422-5.478v5.478h-2.816zM111.89 24v-10.912h2.508l0.264 2.046c0.396-0.704 0.931-1.261 1.606-1.672 0.689-0.425 1.496-0.638 2.42-0.638v2.97h-0.792c-0.616 0-1.166 0.095-1.65 0.286s-0.866 0.521-1.144 0.99c-0.264 0.469-0.396 1.122-0.396 1.958v4.972h-2.816zM123.494 24.264c-0.938 0-1.708-0.147-2.31-0.44-0.601-0.308-1.048-0.711-1.342-1.21s-0.44-1.049-0.44-1.65c0-1.012 0.396-1.833 1.188-2.464s1.98-0.946 3.564-0.946h2.772v-0.264c0-0.748-0.212-1.298-0.638-1.65-0.425-0.352-0.953-0.528-1.584-0.528-0.572 0-1.070 0.139-1.496 0.418-0.425 0.264-0.689 0.66-0.792 1.188h-2.75c0.074-0.792 0.338-1.481 0.792-2.068 0.47-0.587 1.071-1.034 1.804-1.342 0.734-0.323 1.555-0.484 2.464-0.484 1.555 0 2.78 0.389 3.674 1.166 0.895 0.777 1.342 1.877 1.342 3.3v6.71h-2.398l-0.264-1.76c-0.322 0.587-0.777 1.071-1.364 1.452-0.572 0.381-1.312 0.572-2.222 0.572zM124.132 22.064c0.807 0 1.43-0.264 1.87-0.792 0.455-0.528 0.741-1.181 0.858-1.958h-2.398c-0.748 0-1.283 0.139-1.606 0.418-0.322 0.264-0.484 0.594-0.484 0.99 0 0.425 0.162 0.755 0.484 0.99 0.323 0.235 0.748 0.352 1.276 0.352zM133.068 11.394c-0.514 0-0.939-0.154-1.276-0.462-0.323-0.308-0.484-0.697-0.484-1.166s0.161-0.851 0.484-1.144c0.337-0.308 0.762-0.462 1.276-0.462 0.513 0 0.931 0.154 1.254 0.462 0.337 0.293 0.506 0.675 0.506 1.144s-0.169 0.858-0.506 1.166c-0.323 0.308-0.741 0.462-1.254 0.462zM131.66 24v-10.912h2.816v10.912h-2.816zM136.535 24v-10.912h2.486l0.22 1.848c0.337-0.645 0.821-1.159 1.452-1.54 0.645-0.381 1.401-0.572 2.266-0.572 1.349 0 2.398 0.425 3.146 1.276s1.122 2.097 1.122 3.74v6.16h-2.816v-5.896c0-0.939-0.191-1.657-0.572-2.156s-0.975-0.748-1.782-0.748c-0.792 0-1.445 0.279-1.958 0.836-0.499 0.557-0.748 1.335-0.748 2.332v5.632h-2.816zM154.342 24.264c-1.1 0-2.076-0.235-2.926-0.704-0.851-0.469-1.518-1.129-2.002-1.98s-0.726-1.833-0.726-2.948c0-1.129 0.234-2.134 0.704-3.014 0.484-0.88 1.144-1.562 1.98-2.046 0.85-0.499 1.848-0.748 2.992-0.748 1.070 0 2.016 0.235 2.838 0.704 0.821 0.469 1.459 1.115 1.914 1.936 0.469 0.807 0.704 1.709 0.704 2.706 0 0.161-0.008 0.33-0.022 0.506 0 0.176-0.008 0.359-0.022 0.55h-8.294c0.058 0.851 0.352 1.518 0.88 2.002 0.542 0.484 1.195 0.726 1.958 0.726 0.572 0 1.048-0.125 1.43-0.374 0.396-0.264 0.689-0.601 0.88-1.012h2.86c-0.206 0.689-0.55 1.32-1.034 1.892-0.47 0.557-1.056 0.997-1.76 1.32-0.69 0.323-1.474 0.484-2.354 0.484zM154.364 15.112c-0.69 0-1.298 0.198-1.826 0.594-0.528 0.381-0.866 0.968-1.012 1.76h5.434c-0.044-0.719-0.308-1.291-0.792-1.716s-1.086-0.638-1.804-0.638z"></path>
<path fill="#fff" style="fill: var(--color1, #fff)" d="M182.005 30.888c-1.738-1.262-2.991-3.156-3.414-5.351h-5.591v-23.117c2.991 1.443 5.153 4.599 5.388 7.876l0.845 6.493-0.407-0.045c-0.893 0-1.676 0.812-1.676 1.608 0 0.752 0.595 1.383 1.379 1.548l1.018 0.226c1.675-3.051 2.631-6.042 2.631-8.973 0-2.645-0.36-5.291-0.423-7.996 0-1.202 0.485-2.3 1.253-3.156 0.783 0.857 1.253 1.954 1.253 3.156 0 2.705-0.423 5.351-0.423 7.996 0 2.931 0.955 5.922 2.631 8.973l1.018-0.226c0.783-0.165 1.378-0.812 1.378-1.548 0-0.812-0.783-1.608-1.675-1.608l-0.423 0.060 0.845-6.493c0.423-3.277 2.397-6.448 5.388-7.876v23.117h-5.576c-0.422 2.179-1.613 4.148-3.414 5.351-0.423 0.286-0.783 0.631-1.018 1.097-0.219-0.466-0.579-0.812-0.987-1.112zM175.647 17.556c0.235-0.857 0.893-1.608 1.738-2.074l-0.658-5.351c-0.234-1.668-0.955-3.156-2.036-4.374v11.784h0.956v0.015zM178.466 23.929c0-0.812 0.125-1.548 0.298-2.3l-0.784-0.18c-1.143-0.346-2.036-1.203-2.333-2.3h-0.956v4.78h3.775zM182.178 23.929c0-0.977-0.783-1.834-1.801-1.954-0.173 0.631-0.298 1.263-0.298 1.954h2.099zM182.178 25.552h-1.864c0.298 1.263 0.955 2.42 1.864 3.397v-3.397zM184.809 20.547c-0.721-1.262-1.378-2.585-1.801-3.968-0.423 1.383-1.081 2.706-1.801 3.968 0.72 0.165 1.315 0.631 1.801 1.157 0.485-0.526 1.080-0.992 1.801-1.157zM185.952 23.929c0-0.691-0.125-1.323-0.297-1.954-1.018 0.12-1.801 0.977-1.801 1.954h2.098zM185.717 25.552h-1.863v3.397c0.908-0.992 1.566-2.134 1.863-3.397zM191.34 23.929v-4.78h-0.956c-0.297 1.097-1.205 1.954-2.333 2.3l-0.783 0.18c0.172 0.752 0.297 1.488 0.297 2.3h3.775zM191.34 17.556v-11.799c-1.081 1.202-1.864 2.706-2.036 4.374l-0.658 5.351c0.846 0.466 1.504 1.203 1.738 2.074h0.956z"></path>
</symbol>
</defs>
</svg>
