<svg aria-hidden="true" style="position: absolute; width: 0; height: 0; overflow: hidden;" version="1.1" xmlns="http://www.w3.org/2000/svg" xmlns:xlink="http://www.w3.org/1999/xlink">
<defs>
<symbol id="icon-signup-arrow-desk" viewBox="0 0 32 32">
<path fill="none" stroke="#eac645" style="stroke: var(--color1, #eac645)" stroke-linejoin="round" stroke-linecap="round" stroke-miterlimit="4" stroke-width="3.2" d="M5.333 16h21.333M26.667 16l-8-8M26.667 16l-8 8"></path>
</symbol>
<symbol id="icon-arrow-signin-mob" viewBox="0 0 32 32">
<path fill="none" stroke="#eac645" style="stroke: var(--color1, #eac645)" stroke-linejoin="round" stroke-linecap="round" stroke-miterlimit="4" stroke-width="3.2" d="M5.333 16h21.333M26.666 16l-8-8M26.666 16l-8 8"></path>
</symbol>
<symbol id="icon-support-arrow-tab" viewBox="0 0 32 32">
<path fill="#4f2ee8" style="fill: var(--color2, #4f2ee8)" d="M15.053 17.867c0.124 0.125 0.271 0.224 0.434 0.292s0.337 0.103 0.513 0.103c0.176 0 0.35-0.035 0.513-0.103s0.31-0.167 0.434-0.292l6.107-6.12c0.124-0.125 0.271-0.224 0.434-0.292s0.337-0.103 0.513-0.103c0.176 0 0.35 0.035 0.513 0.103s0.31 0.167 0.434 0.292c0.248 0.25 0.388 0.588 0.388 0.94s-0.139 0.69-0.388 0.94l-6.12 6.12c-0.75 0.749-1.767 1.17-2.827 1.17s-2.077-0.421-2.827-1.17l-6.12-6.12c-0.246-0.248-0.385-0.584-0.387-0.933-0.001-0.175 0.033-0.349 0.099-0.512s0.164-0.31 0.288-0.435c0.124-0.125 0.271-0.224 0.434-0.292s0.337-0.103 0.513-0.103c0.176 0 0.35 0.035 0.513 0.103s0.31 0.167 0.434 0.292l6.107 6.12z"></path>
</symbol>
<symbol id="icon-sidebar-arrow-desk" viewBox="0 0 32 32">
<path fill="#4f2ee8" style="fill: var(--color2, #4f2ee8)" d="M15.053 17.867c0.124 0.125 0.271 0.224 0.434 0.292s0.337 0.103 0.513 0.103c0.176 0 0.35-0.035 0.513-0.103s0.31-0.167 0.434-0.292l6.107-6.12c0.124-0.125 0.271-0.224 0.434-0.292s0.337-0.103 0.513-0.103c0.176 0 0.35 0.035 0.513 0.103s0.31 0.167 0.434 0.292c0.248 0.25 0.388 0.588 0.388 0.94s-0.139 0.69-0.388 0.94l-6.12 6.12c-0.75 0.749-1.767 1.17-2.827 1.17s-2.077-0.421-2.827-1.17l-6.12-6.12c-0.246-0.248-0.385-0.584-0.387-0.933-0.001-0.175 0.033-0.349 0.099-0.512s0.164-0.31 0.288-0.435c0.124-0.125 0.271-0.224 0.434-0.292s0.337-0.103 0.513-0.103c0.176 0 0.35 0.035 0.513 0.103s0.31 0.167 0.434 0.292l6.107 6.12z"></path>
</symbol>
<symbol id="icon-arrow-support-mob" viewBox="0 0 32 32">
<path fill="#4f2ee8" style="fill: var(--color2, #4f2ee8)" d="M15.053 17.867c0.124 0.125 0.271 0.224 0.434 0.292s0.337 0.102 0.513 0.102 0.35-0.035 0.513-0.102c0.162-0.068 0.31-0.167 0.434-0.292l6.107-6.12c0.124-0.125 0.272-0.224 0.434-0.292s0.337-0.103 0.513-0.103 0.35 0.035 0.513 0.103c0.162 0.068 0.31 0.167 0.434 0.292 0.248 0.25 0.388 0.588 0.388 0.94s-0.139 0.69-0.388 0.94l-6.12 6.12c-0.75 0.749-1.767 1.17-2.827 1.17s-2.077-0.421-2.827-1.17l-6.12-6.12c-0.246-0.248-0.385-0.584-0.387-0.933-0.001-0.175 0.033-0.349 0.099-0.512s0.164-0.31 0.288-0.435c0.124-0.125 0.271-0.224 0.434-0.292s0.337-0.103 0.513-0.103c0.176 0 0.35 0.035 0.513 0.103s0.31 0.167 0.434 0.292l6.107 6.12z"></path>
</symbol>
<symbol id="icon-logo-mob" viewBox="0 0 32 32">
<path fill="#f6f6f6" style="fill: var(--color3, #f6f6f6)" d="M0 0l16.343 16.171 15.657 15.829v-32h-32z"></path>
<path fill="#f6f6f6" style="fill: var(--color3, #f6f6f6)" d="M4.457 4.229l11.943 11.829 11.257 11.486h-23.2v-23.314z"></path>
<path fill="#4f2ee8" style="fill: var(--color2, #4f2ee8)" d="M27.733 27.618l-11.943-11.829-11.257-11.486h23.2v23.314z"></path>
<path fill="#4f2ee8" style="fill: var(--color2, #4f2ee8)" d="M9.257 9.029l13.6 13.6h-13.6v-13.6z"></path>
<path fill="#f6f6f6" style="fill: var(--color3, #f6f6f6)" d="M9.257 9.029l13.6 13.6v-13.6h-13.6z"></path>
</symbol>
<symbol id="icon-header-logo-desk" viewBox="0 0 32 32">
<path fill="#f6f6f6" style="fill: var(--color3, #f6f6f6)" d="M0 0l16.343 16.171 15.657 15.829v-32h-32z"></path>
<path fill="#f6f6f6" style="fill: var(--color3, #f6f6f6)" d="M4.457 4.229l11.943 11.829 11.257 11.486h-23.2v-23.314z"></path>
<path fill="#4f2ee8" style="fill: var(--color2, #4f2ee8)" d="M27.733 27.618l-11.943-11.829-11.257-11.486h23.2v23.314z"></path>
<path fill="#4f2ee8" style="fill: var(--color2, #4f2ee8)" d="M9.257 9.029l13.6 13.6h-13.6v-13.6z"></path>
<path fill="#f6f6f6" style="fill: var(--color3, #f6f6f6)" d="M9.257 9.029l13.6 13.6v-13.6h-13.6z"></path>
</symbol>
<symbol id="icon-logo-tab" viewBox="0 0 32 32">
<path fill="#f6f6f6" style="fill: var(--color3, #f6f6f6)" d="M0 0l16.343 16.171 15.657 15.829v-32h-32z"></path>
<path fill="#f6f6f6" style="fill: var(--color3, #f6f6f6)" d="M4.457 4.229l11.943 11.829 11.257 11.486h-23.2v-23.314z"></path>
<path fill="#4f2ee8" style="fill: var(--color2, #4f2ee8)" d="M27.733 27.618l-11.943-11.829-11.257-11.486h23.2v23.314z"></path>
<path fill="#4f2ee8" style="fill: var(--color2, #4f2ee8)" d="M9.257 9.029l13.6 13.6h-13.6v-13.6z"></path>
<path fill="#f6f6f6" style="fill: var(--color3, #f6f6f6)" d="M9.257 9.029l13.6 13.6v-13.6h-13.6z"></path>
</symbol>
<symbol id="icon-delete-shoppinglist-tab" viewBox="0 0 32 32">
<path stroke-linejoin="round" stroke-linecap="round" stroke-miterlimit="4" stroke-width="2.6667" d="M12 4h8M4 8h24M25.333 8l-0.935 14.026c-0.14 2.104-0.21 3.156-0.665 3.954-0.4 0.702-1.004 1.267-1.731 1.62-0.826 0.4-1.881 0.4-3.99 0.4h-4.025c-2.109 0-3.163 0-3.99-0.4-0.727-0.353-1.331-0.917-1.731-1.62-0.455-0.798-0.525-1.85-0.665-3.954l-0.935-14.026M13.333 14v6.667M18.667 14v6.667"></path>
</symbol>
<symbol id="icon-delete-shoppinglist-desk" viewBox="0 0 32 32">
<path stroke-linejoin="round" stroke-linecap="round" stroke-miterlimit="4" stroke-width="3" d="M11.5 2.5h9M2.5 7h27M26.5 7l-1.052 15.779c-0.158 2.367-0.237 3.551-0.748 4.449-0.45 0.79-1.129 1.425-1.948 1.822-0.929 0.45-2.116 0.45-4.488 0.45h-4.528c-2.373 0-3.559 0-4.488-0.45-0.818-0.397-1.497-1.032-1.948-1.822-0.511-0.898-0.59-2.081-0.748-4.449l-1.052-15.779M13 13.75v7.5M19 13.75v7.5"></path>
</symbol>
<symbol id="icon-delete-shopinglist-mob" viewBox="0 0 32 32">
<path stroke-linejoin="round" stroke-linecap="round" stroke-miterlimit="4" stroke-width="2" d="M12 4h8M4 8h24M25.333 8l-0.935 14.026c-0.14 2.104-0.21 3.156-0.665 3.954-0.4 0.702-1.004 1.267-1.731 1.62-0.826 0.4-1.881 0.4-3.99 0.4h-4.025c-2.109 0-3.163 0-3.99-0.4-0.727-0.353-1.331-0.917-1.731-1.62-0.455-0.798-0.525-1.85-0.665-3.954l-0.935-14.026M13.333 14v6.667M18.667 14v6.667"></path>
</symbol>
<symbol id="icon-icon-close-desk" viewBox="0 0 32 32">
<path stroke-linejoin="round" stroke-linecap="round" stroke-miterlimit="4" stroke-width="3.4286" d="M24 8l-16 16M8 8l16 16"></path>
</symbol>
<symbol id="icon-mail-input-desk" viewBox="0 0 32 32">
<path stroke-linejoin="round" stroke-linecap="round" stroke-miterlimit="4" stroke-width="2.2857" d="M28.667 24l-8.857-8M12.191 16l-8.857 8M2.667 9.333l10.886 7.621c0.882 0.617 1.322 0.926 1.802 1.045 0.424 0.106 0.866 0.106 1.29 0 0.479-0.12 0.92-0.428 1.802-1.045l10.887-7.621M9.067 26.667h13.867c2.24 0 3.36 0 4.216-0.436 0.753-0.384 1.365-0.995 1.748-1.748 0.436-0.856 0.436-1.976 0.436-4.216v-8.533c0-2.24 0-3.36-0.436-4.216-0.384-0.753-0.995-1.365-1.748-1.748-0.856-0.436-1.976-0.436-4.216-0.436h-13.867c-2.24 0-3.36 0-4.216 0.436-0.753 0.383-1.365 0.995-1.748 1.748-0.436 0.856-0.436 1.976-0.436 4.216v8.533c0 2.24 0 3.36 0.436 4.216 0.384 0.753 0.995 1.365 1.748 1.748 0.856 0.436 1.976 0.436 4.216 0.436z"></path>
</symbol>
<symbol id="icon-password-input-desk" viewBox="0 0 32 32">
<path stroke-linejoin="round" stroke-linecap="round" stroke-miterlimit="4" stroke-width="2.2857" d="M22.667 14.667v-4c0-3.682-2.985-6.667-6.667-6.667s-6.667 2.985-6.667 6.667v4M10.4 28h11.2c2.24 0 3.36 0 4.216-0.436 0.753-0.383 1.365-0.995 1.748-1.748 0.436-0.856 0.436-1.976 0.436-4.216v-0.533c0-2.24 0-3.36-0.436-4.216-0.383-0.753-0.995-1.365-1.748-1.748-0.856-0.436-1.976-0.436-4.216-0.436h-11.2c-2.24 0-3.36 0-4.216 0.436-0.753 0.384-1.365 0.995-1.748 1.748-0.436 0.856-0.436 1.976-0.436 4.216v0.533c0 2.24 0 3.36 0.436 4.216 0.383 0.753 0.995 1.365 1.748 1.748 0.856 0.436 1.976 0.436 4.216 0.436z"></path>
</symbol>
<symbol id="icon-shopping-icon-header-desk" viewBox="0 0 32 32">
<path d="M25.333 9.333h-4v-1.333c0-1.414-0.562-2.771-1.562-3.771s-2.357-1.562-3.771-1.562c-1.414 0-2.771 0.562-3.771 1.562s-1.562 2.357-1.562 3.771v1.333h-4c-0.354 0-0.693 0.14-0.943 0.391s-0.391 0.589-0.391 0.943v14.667c0 1.061 0.421 2.078 1.172 2.828s1.768 1.172 2.828 1.172h13.333c1.061 0 2.078-0.421 2.828-1.172s1.172-1.768 1.172-2.828v-14.667c0-0.354-0.14-0.693-0.391-0.943s-0.589-0.391-0.943-0.391zM13.333 8c0-0.707 0.281-1.386 0.781-1.886s1.178-0.781 1.886-0.781c0.707 0 1.385 0.281 1.886 0.781s0.781 1.178 0.781 1.886v1.333h-5.333v-1.333zM24 25.333c0 0.354-0.14 0.693-0.391 0.943s-0.589 0.39-0.943 0.39h-13.333c-0.354 0-0.693-0.14-0.943-0.39s-0.391-0.589-0.391-0.943v-13.333h2.667v1.333c0 0.354 0.14 0.693 0.391 0.943s0.589 0.391 0.943 0.391c0.354 0 0.693-0.14 0.943-0.391s0.391-0.589 0.391-0.943v-1.333h5.333v1.333c0 0.354 0.14 0.693 0.39 0.943s0.589 0.391 0.943 0.391 0.693-0.14 0.943-0.391c0.25-0.25 0.391-0.589 0.391-0.943v-1.333h2.667v13.333z"></path>
</symbol>
<symbol id="icon-to-shoppingcart-desk" viewBox="0 0 32 32">
<path d="M25.334 9.333h-4v-1.333c0-1.415-0.562-2.771-1.562-3.771s-2.357-1.562-3.771-1.562c-1.415 0-2.771 0.562-3.771 1.562s-1.562 2.357-1.562 3.771v1.333h-4c-0.354 0-0.693 0.14-0.943 0.391s-0.391 0.589-0.391 0.943v14.667c0 1.061 0.421 2.078 1.172 2.828s1.768 1.172 2.828 1.172h13.333c1.061 0 2.078-0.421 2.828-1.172s1.172-1.768 1.172-2.828v-14.667c0-0.354-0.14-0.693-0.391-0.943s-0.589-0.391-0.943-0.391zM13.334 8c0-0.707 0.281-1.386 0.781-1.886s1.178-0.781 1.886-0.781c0.707 0 1.385 0.281 1.886 0.781s0.781 1.178 0.781 1.886v1.333h-5.333v-1.333zM24 25.333c0 0.354-0.14 0.693-0.391 0.943s-0.589 0.391-0.943 0.391h-13.333c-0.354 0-0.693-0.14-0.943-0.391s-0.391-0.589-0.391-0.943v-13.333h2.667v1.333c0 0.354 0.14 0.693 0.391 0.943s0.589 0.391 0.943 0.391c0.354 0 0.693-0.14 0.943-0.391s0.39-0.589 0.39-0.943v-1.333h5.333v1.333c0 0.354 0.14 0.693 0.391 0.943s0.589 0.391 0.943 0.391c0.354 0 0.693-0.14 0.943-0.391s0.391-0.589 0.391-0.943v-1.333h2.667v13.333z"></path>
</symbol>
<symbol id="icon-burger" viewBox="0 0 32 32">
<path stroke-linejoin="round" stroke-linecap="round" stroke-miterlimit="4" stroke-width="2.2857" d="M22.667 13.333h-18.667"></path>
<path stroke-linejoin="round" stroke-linecap="round" stroke-miterlimit="4" stroke-width="2.2857" d="M28 8h-24"></path>
<path stroke-linejoin="round" stroke-linecap="round" stroke-miterlimit="4" stroke-width="2.2857" d="M28 18.667h-24"></path>
<path stroke-linejoin="round" stroke-linecap="round" stroke-miterlimit="4" stroke-width="2.2857" d="M22.667 24h-18.667"></path>
</symbol>
<symbol id="icon-close-mob" viewBox="0 0 32 32">
<path stroke-linejoin="round" stroke-linecap="round" stroke-miterlimit="4" stroke-width="3.4286" d="M24 8l-16 16M8 8l16 16"></path>
</symbol>
<symbol id="icon-close-modal-mob" viewBox="0 0 32 32">
<path stroke-linejoin="round" stroke-linecap="round" stroke-miterlimit="4" stroke-width="3.3333" d="M24 8l-16 16M8 8l16 16"></path>
</symbol>
<symbol id="icon-shopinglist-mob" viewBox="0 0 32 32">
<path d="M26.37 8.593h-4.444v-1.481c0-1.572-0.624-3.079-1.736-4.19s-2.619-1.736-4.19-1.736c-1.572 0-3.079 0.624-4.19 1.736s-1.736 2.619-1.736 4.19v1.481h-4.444c-0.393 0-0.77 0.156-1.048 0.434s-0.434 0.655-0.434 1.048v16.296c0 1.179 0.468 2.309 1.302 3.143s1.964 1.302 3.143 1.302h14.815c1.179 0 2.309-0.468 3.143-1.302s1.302-1.964 1.302-3.143v-16.296c0-0.393-0.156-0.77-0.434-1.048s-0.655-0.434-1.048-0.434zM13.036 7.111c0-0.786 0.312-1.539 0.868-2.095s1.309-0.868 2.095-0.868c0.786 0 1.539 0.312 2.095 0.868s0.868 1.309 0.868 2.095v1.481h-5.926v-1.481zM24.888 26.37c0 0.393-0.156 0.77-0.434 1.047s-0.655 0.434-1.048 0.434h-14.815c-0.393 0-0.77-0.156-1.048-0.434s-0.434-0.655-0.434-1.047v-14.815h2.963v1.481c0 0.393 0.156 0.77 0.434 1.048s0.655 0.434 1.048 0.434c0.393 0 0.77-0.156 1.048-0.434s0.434-0.655 0.434-1.048v-1.481h5.926v1.481c0 0.393 0.156 0.77 0.434 1.048s0.655 0.434 1.048 0.434c0.393 0 0.77-0.156 1.048-0.434s0.434-0.655 0.434-1.048v-1.481h2.963v14.815z"></path>
</symbol>
<symbol id="icon-modal-close-tab" viewBox="0 0 32 32">
<path stroke-linejoin="round" stroke-linecap="round" stroke-miterlimit="4" stroke-width="3.4286" d="M24 8l-16 16M8 8l16 16"></path>
</symbol>
<symbol id="icon-to-shoppingcard-tab" viewBox="0 0 32 32">
<path d="M25.334 9.333h-4v-1.333c0-1.415-0.562-2.771-1.562-3.771s-2.357-1.562-3.771-1.562c-1.415 0-2.771 0.562-3.771 1.562s-1.562 2.357-1.562 3.771v1.333h-4c-0.354 0-0.693 0.14-0.943 0.391s-0.391 0.589-0.391 0.943v14.667c0 1.061 0.421 2.078 1.172 2.828s1.768 1.172 2.828 1.172h13.333c1.061 0 2.078-0.421 2.828-1.172s1.172-1.768 1.172-2.828v-14.667c0-0.354-0.14-0.693-0.391-0.943s-0.589-0.391-0.943-0.391zM13.334 8c0-0.707 0.281-1.386 0.781-1.886s1.178-0.781 1.886-0.781c0.707 0 1.385 0.281 1.886 0.781s0.781 1.178 0.781 1.886v1.333h-5.333v-1.333zM24 25.333c0 0.354-0.14 0.693-0.391 0.943s-0.589 0.391-0.943 0.391h-13.333c-0.354 0-0.693-0.14-0.943-0.391s-0.391-0.589-0.391-0.943v-13.333h2.667v1.333c0 0.354 0.14 0.693 0.391 0.943s0.589 0.391 0.943 0.391c0.354 0 0.693-0.14 0.943-0.391s0.39-0.589 0.39-0.943v-1.333h5.333v1.333c0 0.354 0.14 0.693 0.391 0.943s0.589 0.391 0.943 0.391c0.354 0 0.693-0.14 0.943-0.391s0.391-0.589 0.391-0.943v-1.333h2.667v13.333z"></path>
</symbol>
<symbol id="icon-supportukraine" viewBox="0 0 193 32">
<path fill="#fff" style="fill: var(--color1, #fff)" d="M6.754 24.264c-1.129 0-2.127-0.191-2.992-0.572-0.865-0.396-1.547-0.953-2.046-1.672-0.499-0.733-0.755-1.621-0.77-2.662h2.97c0.029 0.719 0.286 1.327 0.77 1.826 0.499 0.484 1.181 0.726 2.046 0.726 0.748 0 1.342-0.176 1.782-0.528 0.44-0.367 0.66-0.851 0.66-1.452 0-0.631-0.198-1.122-0.594-1.474-0.381-0.352-0.895-0.638-1.54-0.858s-1.335-0.455-2.068-0.704c-1.188-0.411-2.097-0.939-2.728-1.584-0.616-0.645-0.924-1.503-0.924-2.574-0.015-0.909 0.198-1.687 0.638-2.332 0.455-0.66 1.071-1.166 1.848-1.518 0.777-0.367 1.672-0.55 2.684-0.55 1.027 0 1.929 0.183 2.706 0.55 0.792 0.367 1.408 0.88 1.848 1.54 0.455 0.66 0.697 1.445 0.726 2.354h-3.014c-0.015-0.543-0.227-1.019-0.638-1.43-0.396-0.425-0.953-0.638-1.672-0.638-0.616-0.015-1.137 0.139-1.562 0.462-0.411 0.308-0.616 0.763-0.616 1.364 0 0.513 0.161 0.924 0.484 1.232 0.323 0.293 0.763 0.543 1.32 0.748s1.195 0.425 1.914 0.66c0.763 0.264 1.459 0.572 2.090 0.924s1.137 0.821 1.518 1.408c0.381 0.572 0.572 1.313 0.572 2.222 0 0.807-0.205 1.555-0.616 2.244s-1.019 1.247-1.826 1.672c-0.807 0.411-1.797 0.616-2.97 0.616zM17.769 24.264c-1.364 0-2.42-0.425-3.168-1.276-0.733-0.851-1.1-2.097-1.1-3.74v-6.16h2.794v5.896c0 0.939 0.191 1.657 0.572 2.156s0.983 0.748 1.804 0.748c0.777 0 1.415-0.279 1.914-0.836 0.513-0.557 0.77-1.335 0.77-2.332v-5.632h2.816v10.912h-2.486l-0.22-1.848c-0.337 0.645-0.829 1.159-1.474 1.54-0.631 0.381-1.371 0.572-2.222 0.572zM26.182 28.84v-15.752h2.508l0.308 1.562c0.352-0.484 0.814-0.909 1.386-1.276 0.587-0.367 1.342-0.55 2.266-0.55 1.027 0 1.943 0.249 2.75 0.748s1.445 1.181 1.914 2.046c0.469 0.865 0.704 1.848 0.704 2.948s-0.235 2.083-0.704 2.948c-0.469 0.851-1.107 1.525-1.914 2.024-0.807 0.484-1.723 0.726-2.75 0.726-0.821 0-1.54-0.154-2.156-0.462s-1.115-0.741-1.496-1.298v6.336h-2.816zM32.056 21.8c0.895 0 1.635-0.301 2.222-0.902s0.88-1.379 0.88-2.332-0.293-1.738-0.88-2.354c-0.587-0.616-1.327-0.924-2.222-0.924-0.909 0-1.657 0.308-2.244 0.924-0.572 0.601-0.858 1.379-0.858 2.332s0.286 1.738 0.858 2.354c0.587 0.601 1.335 0.902 2.244 0.902zM39.653 28.84v-15.752h2.508l0.308 1.562c0.352-0.484 0.814-0.909 1.386-1.276 0.587-0.367 1.342-0.55 2.266-0.55 1.027 0 1.943 0.249 2.75 0.748s1.445 1.181 1.914 2.046c0.469 0.865 0.704 1.848 0.704 2.948s-0.235 2.083-0.704 2.948c-0.469 0.851-1.107 1.525-1.914 2.024-0.807 0.484-1.723 0.726-2.75 0.726-0.821 0-1.54-0.154-2.156-0.462s-1.115-0.741-1.496-1.298v6.336h-2.816zM45.527 21.8c0.895 0 1.635-0.301 2.222-0.902s0.88-1.379 0.88-2.332-0.293-1.738-0.88-2.354c-0.587-0.616-1.327-0.924-2.222-0.924-0.909 0-1.657 0.308-2.244 0.924-0.572 0.601-0.858 1.379-0.858 2.332s0.286 1.738 0.858 2.354c0.587 0.601 1.335 0.902 2.244 0.902zM58.361 24.264c-1.056 0-2.009-0.242-2.86-0.726-0.836-0.484-1.503-1.151-2.002-2.002-0.484-0.865-0.726-1.863-0.726-2.992s0.249-2.119 0.748-2.97c0.499-0.865 1.166-1.54 2.002-2.024 0.851-0.484 1.804-0.726 2.86-0.726 1.041 0 1.98 0.242 2.816 0.726 0.851 0.484 1.518 1.159 2.002 2.024 0.499 0.851 0.748 1.841 0.748 2.97s-0.249 2.127-0.748 2.992c-0.484 0.851-1.151 1.518-2.002 2.002s-1.797 0.726-2.838 0.726zM58.361 21.822c0.733 0 1.371-0.271 1.914-0.814 0.543-0.557 0.814-1.379 0.814-2.464s-0.271-1.899-0.814-2.442c-0.543-0.557-1.173-0.836-1.892-0.836-0.748 0-1.393 0.279-1.936 0.836-0.528 0.543-0.792 1.357-0.792 2.442s0.264 1.907 0.792 2.464c0.543 0.543 1.181 0.814 1.914 0.814zM65.587 24v-10.912h2.508l0.264 2.046c0.396-0.704 0.931-1.261 1.606-1.672 0.689-0.425 1.496-0.638 2.42-0.638v2.97h-0.792c-0.616 0-1.166 0.095-1.65 0.286s-0.865 0.521-1.144 0.99c-0.264 0.469-0.396 1.122-0.396 1.958v4.972h-2.816zM78.291 24c-1.144 0-2.061-0.279-2.75-0.836s-1.034-1.547-1.034-2.97v-4.752h-1.87v-2.354h1.87l0.33-2.926h2.486v2.926h2.948v2.354h-2.948v4.774c0 0.528 0.11 0.895 0.33 1.1 0.235 0.191 0.631 0.286 1.188 0.286h1.364v2.398h-1.914zM92.177 24.264c-1.129 0-2.149-0.22-3.058-0.66-0.909-0.455-1.635-1.137-2.178-2.046-0.528-0.909-0.792-2.061-0.792-3.454v-9.504h2.816v9.526c0 1.203 0.286 2.097 0.858 2.684 0.587 0.587 1.393 0.88 2.42 0.88 1.012 0 1.811-0.293 2.398-0.88s0.88-1.481 0.88-2.684v-9.526h2.816v9.504c0 1.393-0.279 2.545-0.836 3.454s-1.305 1.591-2.244 2.046c-0.924 0.44-1.951 0.66-3.080 0.66zM100.266 24v-15.84h2.816v9.35l3.872-4.422h3.344l-4.466 4.972 5.192 5.94h-3.52l-4.422-5.478v5.478h-2.816zM111.89 24v-10.912h2.508l0.264 2.046c0.396-0.704 0.931-1.261 1.606-1.672 0.689-0.425 1.496-0.638 2.42-0.638v2.97h-0.792c-0.616 0-1.166 0.095-1.65 0.286s-0.866 0.521-1.144 0.99c-0.264 0.469-0.396 1.122-0.396 1.958v4.972h-2.816zM123.494 24.264c-0.938 0-1.708-0.147-2.31-0.44-0.601-0.308-1.048-0.711-1.342-1.21s-0.44-1.049-0.44-1.65c0-1.012 0.396-1.833 1.188-2.464s1.98-0.946 3.564-0.946h2.772v-0.264c0-0.748-0.212-1.298-0.638-1.65-0.425-0.352-0.953-0.528-1.584-0.528-0.572 0-1.070 0.139-1.496 0.418-0.425 0.264-0.689 0.66-0.792 1.188h-2.75c0.074-0.792 0.338-1.481 0.792-2.068 0.47-0.587 1.071-1.034 1.804-1.342 0.734-0.323 1.555-0.484 2.464-0.484 1.555 0 2.78 0.389 3.674 1.166 0.895 0.777 1.342 1.877 1.342 3.3v6.71h-2.398l-0.264-1.76c-0.322 0.587-0.777 1.071-1.364 1.452-0.572 0.381-1.312 0.572-2.222 0.572zM124.132 22.064c0.807 0 1.43-0.264 1.87-0.792 0.455-0.528 0.741-1.181 0.858-1.958h-2.398c-0.748 0-1.283 0.139-1.606 0.418-0.322 0.264-0.484 0.594-0.484 0.99 0 0.425 0.162 0.755 0.484 0.99 0.323 0.235 0.748 0.352 1.276 0.352zM133.068 11.394c-0.514 0-0.939-0.154-1.276-0.462-0.323-0.308-0.484-0.697-0.484-1.166s0.161-0.851 0.484-1.144c0.337-0.308 0.762-0.462 1.276-0.462 0.513 0 0.931 0.154 1.254 0.462 0.337 0.293 0.506 0.675 0.506 1.144s-0.169 0.858-0.506 1.166c-0.323 0.308-0.741 0.462-1.254 0.462zM131.66 24v-10.912h2.816v10.912h-2.816zM136.535 24v-10.912h2.486l0.22 1.848c0.337-0.645 0.821-1.159 1.452-1.54 0.645-0.381 1.401-0.572 2.266-0.572 1.349 0 2.398 0.425 3.146 1.276s1.122 2.097 1.122 3.74v6.16h-2.816v-5.896c0-0.939-0.191-1.657-0.572-2.156s-0.975-0.748-1.782-0.748c-0.792 0-1.445 0.279-1.958 0.836-0.499 0.557-0.748 1.335-0.748 2.332v5.632h-2.816zM154.342 24.264c-1.1 0-2.076-0.235-2.926-0.704-0.851-0.469-1.518-1.129-2.002-1.98s-0.726-1.833-0.726-2.948c0-1.129 0.234-2.134 0.704-3.014 0.484-0.88 1.144-1.562 1.98-2.046 0.85-0.499 1.848-0.748 2.992-0.748 1.070 0 2.016 0.235 2.838 0.704 0.821 0.469 1.459 1.115 1.914 1.936 0.469 0.807 0.704 1.709 0.704 2.706 0 0.161-0.008 0.33-0.022 0.506 0 0.176-0.008 0.359-0.022 0.55h-8.294c0.058 0.851 0.352 1.518 0.88 2.002 0.542 0.484 1.195 0.726 1.958 0.726 0.572 0 1.048-0.125 1.43-0.374 0.396-0.264 0.689-0.601 0.88-1.012h2.86c-0.206 0.689-0.55 1.32-1.034 1.892-0.47 0.557-1.056 0.997-1.76 1.32-0.69 0.323-1.474 0.484-2.354 0.484zM154.364 15.112c-0.69 0-1.298 0.198-1.826 0.594-0.528 0.381-0.866 0.968-1.012 1.76h5.434c-0.044-0.719-0.308-1.291-0.792-1.716s-1.086-0.638-1.804-0.638z"></path>
<path fill="#fff" style="fill: var(--color1, #fff)" d="M182.005 30.888c-1.738-1.262-2.991-3.156-3.414-5.351h-5.591v-23.117c2.991 1.443 5.153 4.599 5.388 7.876l0.845 6.493-0.407-0.045c-0.893 0-1.676 0.812-1.676 1.608 0 0.752 0.595 1.383 1.379 1.548l1.018 0.226c1.675-3.051 2.631-6.042 2.631-8.973 0-2.645-0.36-5.291-0.423-7.996 0-1.202 0.485-2.3 1.253-3.156 0.783 0.857 1.253 1.954 1.253 3.156 0 2.705-0.423 5.351-0.423 7.996 0 2.931 0.955 5.922 2.631 8.973l1.018-0.226c0.783-0.165 1.378-0.812 1.378-1.548 0-0.812-0.783-1.608-1.675-1.608l-0.423 0.060 0.845-6.493c0.423-3.277 2.397-6.448 5.388-7.876v23.117h-5.576c-0.422 2.179-1.613 4.148-3.414 5.351-0.423 0.286-0.783 0.631-1.018 1.097-0.219-0.466-0.579-0.812-0.987-1.112zM175.647 17.556c0.235-0.857 0.893-1.608 1.738-2.074l-0.658-5.351c-0.234-1.668-0.955-3.156-2.036-4.374v11.784h0.956v0.015zM178.466 23.929c0-0.812 0.125-1.548 0.298-2.3l-0.784-0.18c-1.143-0.346-2.036-1.203-2.333-2.3h-0.956v4.78h3.775zM182.178 23.929c0-0.977-0.783-1.834-1.801-1.954-0.173 0.631-0.298 1.263-0.298 1.954h2.099zM182.178 25.552h-1.864c0.298 1.263 0.955 2.42 1.864 3.397v-3.397zM184.809 20.547c-0.721-1.262-1.378-2.585-1.801-3.968-0.423 1.383-1.081 2.706-1.801 3.968 0.72 0.165 1.315 0.631 1.801 1.157 0.485-0.526 1.080-0.992 1.801-1.157zM185.952 23.929c0-0.691-0.125-1.323-0.297-1.954-1.018 0.12-1.801 0.977-1.801 1.954h2.098zM185.717 25.552h-1.863v3.397c0.908-0.992 1.566-2.134 1.863-3.397zM191.34 23.929v-4.78h-0.956c-0.297 1.097-1.205 1.954-2.333 2.3l-0.783 0.18c0.172 0.752 0.297 1.488 0.297 2.3h3.775zM191.34 17.556v-11.799c-1.081 1.202-1.864 2.706-2.036 4.374l-0.658 5.351c0.846 0.466 1.504 1.203 1.738 2.074h0.956z"></path>
</symbol>
<symbol id="icon-amazon" viewBox="0 0 106 32">
<path fill="#8a8475" style="fill: var(--color1, #8a8475)" d="M65.759 24.999c-6.154 4.536-15.073 6.956-22.753 6.956-10.768 0-20.462-3.983-27.796-10.607-0.576-0.521-0.060-1.231 0.631-0.825 7.915 4.605 17.701 7.375 27.809 7.375 6.818 0 14.317-1.411 21.213-4.338 1.042-0.443 1.913 0.682 0.894 1.438z"></path>
<path fill="#8a8475" style="fill: var(--color1, #8a8475)" d="M68.318 22.072c-0.784-1.005-5.2-0.475-7.182-0.24-0.604 0.074-0.696-0.452-0.152-0.83 3.517-2.475 9.288-1.761 9.961-0.931 0.673 0.834-0.175 6.619-3.48 9.38-0.507 0.424-0.991 0.198-0.765-0.364 0.742-1.853 2.406-6.006 1.618-7.016z"></path>
<path fill="#221f1f" style="fill: var(--color2, #221f1f)" d="M61.274 3.528v-2.406c0-0.364 0.277-0.608 0.608-0.608h10.773c0.346 0 0.622 0.249 0.622 0.608v2.060c-0.005 0.346-0.295 0.797-0.811 1.512l-5.582 7.97c2.074-0.051 4.264 0.258 6.145 1.318 0.424 0.24 0.539 0.59 0.572 0.936v2.568c0 0.35-0.387 0.761-0.793 0.549-3.314-1.738-7.716-1.927-11.381 0.018-0.373 0.203-0.765-0.203-0.765-0.553v-2.438c0-0.392 0.005-1.060 0.396-1.655l6.467-9.274h-5.628c-0.346 0-0.622-0.244-0.622-0.604z"></path>
<path fill="#221f1f" style="fill: var(--color2, #221f1f)" d="M21.978 18.541h-3.277c-0.313-0.023-0.562-0.258-0.585-0.558v-16.82c0-0.337 0.281-0.604 0.631-0.604h3.056c0.318 0.014 0.572 0.258 0.595 0.562v2.199h0.060c0.797-2.125 2.296-3.116 4.315-3.116 2.051 0 3.333 0.991 4.255 3.116 0.793-2.125 2.595-3.116 4.527-3.116 1.374 0 2.876 0.567 3.794 1.839 1.037 1.415 0.825 3.471 0.825 5.273l-0.005 10.616c0 0.337-0.281 0.608-0.632 0.608h-3.273c-0.327-0.023-0.59-0.286-0.59-0.608v-8.915c0-0.71 0.065-2.48-0.092-3.153-0.244-1.129-0.977-1.447-1.927-1.447-0.793 0-1.623 0.53-1.959 1.378s-0.304 2.268-0.304 3.222v8.915c0 0.337-0.281 0.608-0.631 0.608h-3.273c-0.332-0.023-0.59-0.286-0.59-0.608l-0.005-8.915c0-1.876 0.309-4.637-2.019-4.637-2.355 0-2.263 2.692-2.263 4.637v8.915c0 0.337-0.281 0.608-0.631 0.608z"></path>
<path fill="#221f1f" style="fill: var(--color2, #221f1f)" d="M82.552 0.205c4.863 0 7.495 4.176 7.495 9.486 0 5.13-2.909 9.201-7.495 9.201-4.775 0-7.375-4.176-7.375-9.38 0-5.236 2.632-9.307 7.375-9.307zM82.58 3.639c-2.415 0-2.568 3.291-2.568 5.342 0 2.056-0.032 6.444 2.54 6.444 2.54 0 2.66-3.54 2.66-5.697 0-1.42-0.060-3.116-0.489-4.462-0.369-1.171-1.102-1.627-2.143-1.627z"></path>
<path fill="#221f1f" style="fill: var(--color2, #221f1f)" d="M96.353 18.541h-3.264c-0.327-0.023-0.59-0.286-0.59-0.608l-0.005-16.825c0.028-0.309 0.3-0.549 0.632-0.549h3.038c0.286 0.014 0.521 0.207 0.585 0.47v2.572h0.060c0.917-2.3 2.203-3.397 4.467-3.397 1.47 0 2.904 0.53 3.826 1.982 0.857 1.346 0.857 3.609 0.857 5.236v10.588c-0.037 0.295-0.309 0.53-0.632 0.53h-3.287c-0.3-0.023-0.549-0.244-0.581-0.53v-9.136c0-1.839 0.212-4.531-2.051-4.531-0.797 0-1.53 0.535-1.895 1.346-0.461 1.028-0.521 2.051-0.521 3.185v9.058c-0.005 0.337-0.29 0.608-0.641 0.608z"></path>
<path fill="#221f1f" style="fill: var(--color2, #221f1f)" d="M52.687 10.507v-0.71c-2.369 0-4.872 0.507-4.872 3.3 0 1.415 0.733 2.374 1.991 2.374 0.922 0 1.747-0.567 2.268-1.489 0.645-1.134 0.613-2.199 0.613-3.476zM55.992 18.495c-0.217 0.194-0.53 0.207-0.774 0.078-1.088-0.903-1.281-1.323-1.881-2.185-1.798 1.835-3.070 2.383-5.402 2.383-2.757 0-4.905-1.701-4.905-5.107 0-2.66 1.443-4.471 3.494-5.356 1.779-0.784 4.264-0.922 6.163-1.139v-0.424c0-0.779 0.060-1.701-0.396-2.374-0.401-0.604-1.166-0.853-1.839-0.853-1.249 0-2.365 0.641-2.637 1.968-0.055 0.295-0.272 0.585-0.567 0.599l-3.181-0.341c-0.267-0.060-0.562-0.277-0.489-0.687 0.733-3.854 4.213-5.015 7.329-5.015 1.595 0 3.678 0.424 4.937 1.632 1.595 1.489 1.443 3.476 1.443 5.638v5.107c0 1.535 0.636 2.208 1.235 3.038 0.212 0.295 0.258 0.65-0.009 0.871-0.668 0.558-1.858 1.595-2.512 2.176l-0.009-0.009z"></path>
<path fill="#221f1f" style="fill: var(--color2, #221f1f)" d="M9.721 10.507v-0.71c-2.369 0-4.872 0.507-4.872 3.3 0 1.415 0.733 2.374 1.991 2.374 0.922 0 1.747-0.567 2.268-1.489 0.645-1.134 0.613-2.199 0.613-3.476zM13.026 18.495c-0.217 0.194-0.53 0.207-0.774 0.078-1.088-0.903-1.281-1.323-1.881-2.185-1.798 1.835-3.070 2.383-5.402 2.383-2.756 0-4.905-1.701-4.905-5.107 0-2.66 1.443-4.471 3.494-5.356 1.779-0.784 4.264-0.922 6.163-1.139v-0.424c0-0.779 0.060-1.701-0.396-2.374-0.401-0.604-1.166-0.853-1.839-0.853-1.249 0-2.365 0.641-2.637 1.968-0.055 0.295-0.272 0.585-0.567 0.599l-3.181-0.341c-0.267-0.060-0.562-0.277-0.489-0.687 0.733-3.854 4.213-5.015 7.329-5.015 1.595 0 3.678 0.424 4.937 1.632 1.595 1.489 1.443 3.476 1.443 5.638v5.107c0 1.535 0.636 2.208 1.235 3.038 0.212 0.295 0.258 0.65-0.009 0.871-0.668 0.558-1.858 1.595-2.512 2.176l-0.009-0.009z"></path>
</symbol>
<symbol id="icon-bookamazon" viewBox="0 0 32 32">
<path d="M25.427 0.199c0.303 0.229 0.657 0.317 1.062 0.266 0 0.044 0 0.089 0 0.133-0.669-0.012-1.333-0.078-1.992-0.199-5.355-0.066-10.711-0.089-16.066-0.066 0-0.044 0-0.089 0-0.133 5.657-0.17 11.322-0.17 16.996 0z"></path>
<path d="M8.432 0.199c0 0.044 0 0.089 0 0.133-1.065 0-2.127 0.044-3.187 0.133 0.193-0.106 0.414-0.173 0.664-0.199 0.84-0.066 1.681-0.088 2.523-0.066z"></path>
<path d="M25.427 0.199c0.381 0.040 0.735 0.129 1.062 0.266-0.405 0.052-0.759-0.037-1.062-0.266z"></path>
<path d="M5.245 0.465c-0.268 0.189-0.577 0.278-0.929 0.266 0.268-0.189 0.577-0.278 0.929-0.266z"></path>
<path d="M8.432 0.332c5.356-0.022 10.711 0 16.066 0.066 0.659 0.121 1.323 0.188 1.992 0.199 0.613 0.129 1.144 0.395 1.593 0.797-0.786 0.198-1.56 0.153-2.324-0.133-0.298 0.024-0.364 0.135-0.199 0.332-0.114 0.363-0.225 0.385-0.332 0.066-0.089 0.354-0.177 0.354-0.266 0-0.044 0.089-0.089 0.177-0.133 0.266-0.203-0.162-0.446-0.251-0.73-0.266-0.221 0.022-0.443 0.044-0.664 0.066-0.083 0.1-0.149 0.21-0.199 0.332-1.031-0.134-2.071-0.134-3.12 0-3.19-0.15-6.376-0.239-9.56-0.266 0.006-0.67-0.171-0.692-0.531-0.066-0.697-0.021-1.339 0.134-1.925 0.465-1.259-0.101-2.565-0.168-3.917-0.199 0.388-0.227 0.787-0.249 1.195-0.066 0.133-0.044 0.221-0.133 0.266-0.266-0.623-0.237-1.176-0.149-1.66 0.266-0.078-0.314-0.277-0.447-0.598-0.398 0.351-0.22 0.661-0.485 0.929-0.797 0.352 0.012 0.662-0.077 0.929-0.266 1.060-0.088 2.122-0.133 3.187-0.133z"></path>
<path d="M26.49 0.598c0-0.044 0-0.089 0-0.133 1.035 0.163 1.92 0.606 2.656 1.328-0.322-0.205-0.676-0.338-1.062-0.398-0.449-0.402-0.98-0.667-1.593-0.797z"></path>
<path d="M4.315 0.73c-0.269 0.311-0.578 0.577-0.929 0.797-0.415 0.271-0.857 0.493-1.328 0.664 0.597-0.72 1.35-1.206 2.257-1.461z"></path>
<path d="M28.083 1.394c0.386 0.061 0.74 0.193 1.062 0.398 0.171 0.259 0.392 0.48 0.664 0.664 0.077 0.299 0.254 0.52 0.531 0.664 0.138 0.669 0.448 1.244 0.929 1.726 0 0.044 0 0.089 0 0.133 0.093 1.148 0.138 2.299 0.133 3.452-0.292-0.662-0.425-1.37-0.398-2.124 0.22-0.622 0.088-1.153-0.398-1.593-0.063 0.348-0.24 0.613-0.531 0.797-0.009-0.115-0.053-0.248-0.133-0.398 0.19-0.243 0.256-0.509 0.199-0.797-0.044 0.044-0.089 0.089-0.133 0.133-0.056-0.156-0.144-0.288-0.266-0.398-0.49 0.203-0.999 0.27-1.527 0.199-0.085-0.283-0.262-0.482-0.531-0.598-0.107 0.041-0.196 0.107-0.266 0.199-7.701 0.089-15.402 0.089-23.104 0-0.044-0.044-0.089-0.089-0.133-0.133 0.704-0.11 1.412-0.177 2.124-0.199 2.124 0.044 4.249 0.089 6.373 0.133 0.539-0.045 1.070-0.134 1.593-0.266 0.708 0.089 1.416 0.177 2.124 0.266 3.672-0.105 7.345-0.149 11.021-0.133 0-0.221 0-0.443 0-0.664-7.701-0.022-15.403 0-23.104 0.066-0.111 0.134-0.155 0.289-0.133 0.465-0.398 0.044-0.575-0.133-0.531-0.531-0.176 0.023-0.33-0.022-0.465-0.133-0.453 0.105-0.918 0.172-1.394 0.199-0.044 0.044-0.089 0.089-0.133 0.133 0.126 0.064 0.259 0.086 0.398 0.066 0 0.221 0 0.443 0 0.664-0.218 0.028-0.417-0.016-0.598-0.133-0.177 0.354-0.354 0.708-0.531 1.062-0.089 0.1-0.2 0.144-0.332 0.133 0.166-0.333 0.254-0.687 0.266-1.062 0.125-0.385 0.347-0.695 0.664-0.929 0.277-0.144 0.454-0.365 0.531-0.664 0.471-0.171 0.913-0.393 1.328-0.664 0.32-0.048 0.519 0.085 0.598 0.398 0.484-0.414 1.037-0.503 1.66-0.266-0.044 0.133-0.133 0.221-0.266 0.266-0.409-0.183-0.807-0.161-1.195 0.066 1.352 0.031 2.658 0.098 3.917 0.199 0.586-0.331 1.228-0.486 1.925-0.465 0.36-0.626 0.537-0.603 0.531 0.066 3.184 0.027 6.371 0.115 9.56 0.266 1.049-0.134 2.089-0.134 3.12 0 0.050-0.122 0.116-0.232 0.199-0.332 0.221-0.022 0.443-0.044 0.664-0.066 0.284 0.015 0.528 0.104 0.73 0.266 0.044-0.089 0.089-0.177 0.133-0.266 0.089 0.354 0.177 0.354 0.266 0 0.107 0.319 0.218 0.297 0.332-0.066-0.165-0.197-0.098-0.308 0.199-0.332 0.763 0.286 1.538 0.33 2.324 0.133z"></path>
<path d="M29.145 1.793c0.357 0.092 0.578 0.313 0.664 0.664-0.272-0.183-0.493-0.405-0.664-0.664z"></path>
<path d="M2.058 2.191c-0.077 0.299-0.254 0.52-0.531 0.664 0.077-0.299 0.254-0.52 0.531-0.664z"></path>
<path d="M29.809 2.456c0.277 0.144 0.454 0.365 0.531 0.664-0.277-0.144-0.454-0.365-0.531-0.664z"></path>
<path d="M31.004 6.307c-0.082-0.015-0.148-0.059-0.199-0.133-0.107 0.753-0.217 1.506-0.332 2.257-0.131-0.479-0.176-0.966-0.133-1.461-1.593 0-3.187 0-4.78 0 0-0.133 0-0.266 0-0.398-0.399 0.018-0.731-0.115-0.996-0.398-0.367 0.214-0.743 0.436-1.129 0.664-0.129-0.131-0.284-0.22-0.465-0.266-0.612 0.124-1.254 0.256-1.925 0.398-0.415 0.009-0.813-0.058-1.195-0.199 0.251-0.129 0.517-0.218 0.797-0.266-0.123-0.132-0.278-0.198-0.465-0.199-0.741 0.136-1.449 0.358-2.124 0.664-0.359-0.168-0.691-0.124-0.996 0.133-0.704-0.142-1.412-0.164-2.124-0.066-0.252 0.119-0.473 0.274-0.664 0.465 0.109 0.214 0.286 0.302 0.531 0.266 0 0.133 0 0.266 0 0.398-0.221 0-0.443 0-0.664 0-0.277-0.191-0.587-0.28-0.929-0.266-0.415-0.331-0.902-0.508-1.461-0.531-0.254 0.038-0.476-0.006-0.664-0.133-0.595-0.152-1.215-0.175-1.859-0.066-0.825 0.081-1.622 0.236-2.39 0.465-0.694-0.275-0.694-0.562 0-0.863-0.044-0.044-0.089-0.089-0.133-0.133 0.669-0.099 0.691-0.254 0.066-0.465-0.223 0.238-0.467 0.305-0.73 0.199-0.177 0.133-0.177 0.266 0 0.398-0.513 0.18-1.044 0.246-1.593 0.199-0.089 0.708-0.177 0.708-0.266 0-0.708 0-1.416 0-2.124 0 0.021-0.182-0.001-0.359-0.066-0.531-0.044 0.089-0.089 0.177-0.133 0.266-0.012 0.468-0.1 0.911-0.266 1.328-0.064-0.395-0.219-0.749-0.465-1.062-0.044 0.022-0.089 0.044-0.133 0.066 0.086 0.307 0.086 0.639 0 0.996-0.044 0.089-0.089 0.177-0.133 0.266-0.106-0.21-0.172-0.431-0.199-0.664-0.023 0.294-0.111 0.56-0.266 0.797 0.048-1.193 0.115-2.388 0.199-3.585 0.132 0.011 0.243-0.033 0.332-0.133 0.177-0.354 0.354-0.708 0.531-1.062 0.18 0.117 0.379 0.161 0.598 0.133 0-0.221 0-0.443 0-0.664-0.14 0.020-0.272-0.002-0.398-0.066 0.044-0.044 0.089-0.089 0.133-0.133 0.477-0.027 0.941-0.094 1.394-0.199 0.134 0.111 0.289 0.155 0.465 0.133-0.044 0.398 0.133 0.575 0.531 0.531-0.023-0.176 0.022-0.33 0.133-0.465 7.701-0.066 15.402-0.089 23.104-0.066 0 0.221 0 0.443 0 0.664-3.675-0.016-7.349 0.028-11.021 0.133-0.708-0.089-1.416-0.177-2.124-0.266-0.523 0.132-1.055 0.22-1.593 0.266-2.124-0.044-4.249-0.089-6.373-0.133-0.712 0.023-1.42 0.089-2.124 0.199 0.044 0.044 0.089 0.089 0.133 0.133 7.701 0.089 15.402 0.089 23.104 0 0.070-0.092 0.158-0.158 0.266-0.199 0.269 0.115 0.446 0.315 0.531 0.597 0.528 0.071 1.037 0.004 1.527-0.199 0.122 0.11 0.21 0.243 0.266 0.398 0.044-0.044 0.089-0.089 0.133-0.133 0.057 0.288-0.009 0.554-0.199 0.797 0.080 0.151 0.124 0.283 0.133 0.398 0.291-0.183 0.468-0.449 0.531-0.797 0.486 0.44 0.619 0.971 0.398 1.593z"></path>
<path d="M30.34 3.12c0.48 0.473 0.79 1.048 0.929 1.726-0.482-0.482-0.791-1.057-0.929-1.726z"></path>
<path d="M0.863 3.784c-0.011 0.375-0.1 0.729-0.266 1.062-0.089 0.133-0.177 0.266-0.266 0.398 0.022-0.554 0.199-1.041 0.531-1.461z"></path>
<path d="M0.332 5.245c0.007 0.821-0.038 1.64-0.133 2.456-0.006 0.305-0.095 0.548-0.266 0.73 0-0.531 0-1.062 0-1.593 0.075-0.545 0.208-1.076 0.398-1.593z"></path>
<path d="M0.598 4.846c-0.084 1.197-0.151 2.392-0.199 3.585 0.154-0.237 0.243-0.503 0.266-0.797 0.027 0.233 0.093 0.454 0.199 0.664 0.044-0.089 0.089-0.177 0.133-0.266 0.086-0.357 0.086-0.689 0-0.996 0.044-0.022 0.089-0.044 0.133-0.066 0.246 0.313 0.401 0.667 0.465 1.062 0.165-0.417 0.254-0.859 0.266-1.328 0.044-0.089 0.089-0.177 0.133-0.266 0.065 0.172 0.087 0.349 0.066 0.531 0.708 0 1.416 0 2.124 0 0.089 0.708 0.177 0.708 0.266 0 0.549 0.047 1.080-0.019 1.593-0.199-0.177-0.133-0.177-0.266 0-0.398 0.264 0.105 0.507 0.039 0.73-0.199 0.625 0.211 0.603 0.366-0.066 0.465 0.044 0.044 0.089 0.089 0.133 0.133-0.694 0.301-0.694 0.588 0 0.863-0.177 0.221-0.354 0.443-0.531 0.664-0.35 0.009-0.638 0.142-0.863 0.398-0.182-0.135-0.337-0.135-0.465 0 0.016 0.359-0.117 0.448-0.398 0.266-0.045 0.876-0.156 1.761-0.332 2.656-0.065-0.172-0.087-0.349-0.066-0.531-0.664 0-1.328 0-1.992 0 0-0.177 0-0.354 0-0.531 0.626 0.043 1.246-0.001 1.859-0.133-0.703-0.132-1.411-0.176-2.124-0.133 0.020-0.14-0.002-0.272-0.066-0.398-0.044 0.177-0.089 0.354-0.133 0.531-0.044-0.044-0.089-0.089-0.133-0.133-0.023 0.449-0.090 0.892-0.199 1.328-0.171-0.286-0.282-0.596-0.332-0.929-0.044 0.31-0.089 0.62-0.133 0.929-0.123-0.435-0.057-0.833 0.199-1.195-0.281-0.258-0.325-0.545-0.133-0.863-0.103-0.319-0.169-0.651-0.199-0.996-0.044 1.018-0.089 2.036-0.133 3.054-0.044-0.487-0.089-0.974-0.133-1.461-0.066 0.662-0.088 1.326-0.066 1.992-0.342 3.689-0.475 7.407-0.398 11.154-0.044 0-0.089 0-0.133 0 0-4.957 0-9.914 0-14.871 0.171-0.182 0.259-0.426 0.266-0.73 0.095-0.816 0.139-1.635 0.133-2.456 0.089-0.133 0.177-0.266 0.266-0.398z"></path>
<path d="M31.004 6.307c-0.027 0.754 0.106 1.462 0.398 2.124 0 2.833 0 5.665 0 8.498-0.131-0.504-0.175-1.035-0.133-1.593 0.022-1.638 0-3.276-0.066-4.913-0.072-0.693-0.183-0.693-0.332 0-0.078-0.028-0.144-0.072-0.199-0.133-0.094 0.196-0.249 0.284-0.465 0.266-0.025-0.274-0.091-0.54-0.199-0.797-0.040 0.317-0.151 0.605-0.332 0.863 0.14 0.184 0.162 0.383 0.066 0.598-0.718-0.129-1.448-0.174-2.191-0.133 0.025-0.213-0.041-0.39-0.199-0.531-0.044 0.354-0.089 0.708-0.133 1.062-0.044-0.398-0.089-0.797-0.133-1.195-0.051-0.074-0.117-0.118-0.199-0.133-0.059-0.557-0.192-1.089-0.398-1.593-0.177 0-0.354 0-0.531 0-0.073-0.243-0.073-0.464 0-0.664-0.217-0.157-0.438-0.157-0.664 0-0.199-0.077-0.376-0.188-0.531-0.332 0.044-0.044 0.089-0.089 0.133-0.133-0.172-0.065-0.349-0.087-0.531-0.066-0.023-0.176 0.022-0.33 0.133-0.465-0.163-0.261-0.296-0.239-0.398 0.066-0.613 0.132-1.233 0.176-1.859 0.133-0.595-0.152-1.215-0.175-1.859-0.066-0.346 0.052-0.656 0.162-0.929 0.332-0.851 0.007-1.515 0.361-1.992 1.062-0.089 0.177-0.221 0.31-0.398 0.398-0.343 0.197-0.52 0.507-0.531 0.929-0.273 0.333-0.405 0.731-0.398 1.195-0.044 0-0.089 0-0.133 0-0.118 0.081-0.251 0.125-0.398 0.133 0-0.044 0-0.089 0-0.133 0.023-0.55-0.066-1.081-0.266-1.593-0.492-0.359-0.89-0.802-1.195-1.328 0.221 0 0.443 0 0.664 0 0-0.133 0-0.266 0-0.398-0.245 0.037-0.422-0.052-0.531-0.266 0.191-0.19 0.412-0.345 0.664-0.465 0.713-0.098 1.421-0.076 2.124 0.066 0.305-0.257 0.637-0.301 0.996-0.133 0.675-0.306 1.383-0.527 2.124-0.664 0.186 0.001 0.341 0.068 0.465 0.199-0.28 0.048-0.545 0.136-0.797 0.266 0.382 0.141 0.78 0.208 1.195 0.199 0.671-0.142 1.313-0.275 1.925-0.398 0.181 0.046 0.336 0.134 0.465 0.266 0.385-0.228 0.762-0.45 1.129-0.664 0.265 0.283 0.597 0.416 0.996 0.398 0 0.133 0 0.266 0 0.398 1.593 0 3.187 0 4.78 0-0.043 0.495 0.001 0.982 0.133 1.461 0.115-0.752 0.225-1.504 0.332-2.257 0.051 0.074 0.117 0.118 0.199 0.133z"></path>
<path d="M22.241 7.237c-0.941-0.021-1.871 0.067-2.788 0.266 0.274-0.169 0.584-0.28 0.929-0.332 0.644-0.108 1.264-0.086 1.859 0.066z"></path>
<path d="M11.087 7.237c-1.691-0.064-3.284 0.29-4.78 1.062 0.177-0.221 0.354-0.443 0.531-0.664 0.768-0.229 1.565-0.384 2.39-0.465 0.644-0.108 1.264-0.086 1.859 0.066z"></path>
<path d="M11.751 7.369c0.559 0.024 1.046 0.201 1.461 0.531-0.517-0.128-1.004-0.305-1.461-0.531z"></path>
<path d="M19.452 7.502c-0.68 0.318-1.344 0.672-1.992 1.062 0.477-0.701 1.141-1.055 1.992-1.062z"></path>
<path d="M25.959 8.697c-1.143-0.75-2.382-1.236-3.718-1.461 0.626 0.043 1.245-0.001 1.859-0.133 0.102-0.306 0.235-0.328 0.398-0.066-0.111 0.134-0.155 0.289-0.133 0.465 0.182-0.021 0.359 0.001 0.531 0.066-0.044 0.044-0.089 0.089-0.133 0.133 0.155 0.144 0.332 0.255 0.531 0.332 0.225-0.157 0.447-0.157 0.664 0-0.073 0.2-0.073 0.421 0 0.664z"></path>
<path d="M13.212 7.9c0.342-0.014 0.652 0.074 0.929 0.266 0.305 0.526 0.703 0.969 1.195 1.328 0.2 0.512 0.288 1.043 0.266 1.593-0.077-0.373-0.21-0.728-0.398-1.062-0.48-0.879-1.144-1.587-1.992-2.124z"></path>
<path d="M17.062 8.963c-0.144 0.332-0.321 0.642-0.531 0.929 0.011-0.422 0.188-0.732 0.531-0.929z"></path>
<path d="M31.27 15.336c-0.11-0.817-0.176-1.658-0.199-2.523-0.044 0.929-0.089 1.859-0.133 2.788-0.044-0.664-0.089-1.328-0.133-1.992-0.153 0.68-0.33 1.343-0.531 1.992-0.030-0.717-0.119-1.425-0.266-2.124-0.066 0.44-0.088 0.883-0.066 1.328-0.974 0-1.948 0-2.921 0-0.044 0-0.089 0-0.133 0 0-1.505 0-3.010 0-4.515 0.082 0.015 0.148 0.059 0.199 0.133 0.044 0.398 0.089 0.797 0.133 1.195 0.044-0.354 0.089-0.708 0.133-1.062 0.158 0.141 0.224 0.318 0.199 0.531 0.743-0.041 1.473 0.004 2.191 0.133 0.096-0.214 0.074-0.413-0.066-0.598 0.181-0.258 0.292-0.546 0.332-0.863 0.108 0.257 0.174 0.523 0.199 0.797 0.216 0.019 0.37-0.070 0.465-0.266 0.055 0.061 0.121 0.105 0.199 0.133 0.149-0.693 0.26-0.693 0.332 0 0.066 1.637 0.089 3.275 0.066 4.913z"></path>
<path d="M4.979 8.697c0.083 0.055 0.127 0.144 0.133 0.266-0.223 0.408-0.312 0.85-0.266 1.328-0.132 1.481-0.176 2.986-0.133 4.515-0.044 0-0.089 0-0.133 0-0.231-0.333-0.341-0.731-0.332-1.195-0.029 0.389-0.095 0.765-0.199 1.129-0.618 0.066-1.238 0.088-1.859 0.066 0.001-0.758-0.065-0.802-0.199-0.133-0.107-0.319-0.218-0.297-0.332 0.066-0.23 0.086-0.452 0.064-0.664-0.066-0.11-0.615-0.176-1.235-0.199-1.859-0.044 0.664-0.089 1.328-0.133 1.992-0.024-0.468-0.090-0.911-0.199-1.328 0-0.443 0-0.885 0-1.328-0.022-0.665 0-1.329 0.066-1.992 0.044 0.487 0.089 0.974 0.133 1.461 0.044-1.018 0.089-2.036 0.133-3.054 0.030 0.345 0.096 0.677 0.199 0.996-0.193 0.318-0.148 0.606 0.133 0.863-0.256 0.362-0.322 0.76-0.199 1.195 0.044-0.31 0.089-0.62 0.133-0.929 0.050 0.333 0.161 0.643 0.332 0.929 0.109-0.436 0.176-0.879 0.199-1.328 0.044 0.044 0.089 0.089 0.133 0.133 0.044-0.177 0.089-0.354 0.133-0.531 0.064 0.126 0.086 0.259 0.066 0.398 0.714-0.044 1.422 0.001 2.124 0.133-0.613 0.132-1.233 0.176-1.859 0.133 0 0.177 0 0.354 0 0.531 0.664 0 1.328 0 1.992 0-0.021 0.182 0.001 0.359 0.066 0.531 0.176-0.895 0.287-1.78 0.332-2.656 0.281 0.182 0.414 0.094 0.398-0.266z"></path>
<path d="M26.49 9.494c0.102 0.101 0.168 0.234 0.199 0.398 0.066 4.381 0.089 8.763 0.066 13.145-0.044 0-0.089 0-0.133 0 0.040-4.517-0.005-9.032-0.133-13.544z"></path>
<path d="M6.307 8.299c-0.443 0.354-0.841 0.752-1.195 1.195-0.133 4.492-0.177 9.006-0.133 13.544-0.133-4.226-0.177-8.475-0.133-12.747-0.046-0.477 0.043-0.92 0.266-1.328-0.006-0.122-0.050-0.21-0.133-0.266 0.128-0.135 0.282-0.135 0.465 0 0.225-0.256 0.513-0.389 0.863-0.398z"></path>
<path d="M31.27 15.336c-0.042 0.558 0.002 1.089 0.133 1.593 0 1.416 0 2.833 0 4.249-0.082-0.015-0.148-0.059-0.199-0.133-0.107-0.653-0.084-1.295 0.066-1.925-0.182-0.084-0.359-0.172-0.531-0.266 0.088-0.516 0.021-1.025-0.199-1.527-0.009 0.6-0.097 1.175-0.266 1.726-0.161-0.327-0.25-0.681-0.266-1.062-0.086 0.152-0.196 0.285-0.332 0.398-0.737 0.173-1.468 0.173-2.191 0-0.044 0.089-0.089 0.177-0.133 0.266-0.277-1.267-0.388-2.55-0.332-3.851 0.974 0 1.948 0 2.921 0-0.022-0.445 0-0.887 0.066-1.328 0.147 0.7 0.235 1.408 0.266 2.124 0.201-0.648 0.378-1.312 0.531-1.992 0.044 0.664 0.089 1.328 0.133 1.992 0.044-0.929 0.089-1.859 0.133-2.788 0.023 0.865 0.089 1.706 0.199 2.523z"></path>
<path d="M4.581 14.805c0.035 1.025-0.032 2.043-0.199 3.054-0.044-0.089-0.089-0.177-0.133-0.266-0.066 0.307-0.088 0.616-0.066 0.929-0.664 0-1.328 0-1.992 0-0.182-1.452-0.337-1.496-0.465-0.133-0.165 0.829-0.43 0.874-0.797 0.133-0.044-0.443-0.089-0.885-0.133-1.328-0.044 0.221-0.089 0.443-0.133 0.664-0.028-0.207-0.094-0.384-0.199-0.531 0-1.284 0-2.567 0-3.851 0.109 0.417 0.175 0.86 0.199 1.328 0.044-0.664 0.089-1.328 0.133-1.992 0.023 0.624 0.089 1.244 0.199 1.859 0.212 0.131 0.434 0.153 0.664 0.066 0.114-0.363 0.225-0.385 0.332-0.066 0.134-0.669 0.2-0.625 0.199 0.133 0.621 0.022 1.241-0 1.859-0.066 0.104-0.364 0.17-0.74 0.199-1.129-0.009 0.464 0.101 0.862 0.332 1.195z"></path>
<path d="M0.465 12.149c0 0.443 0 0.885 0 1.328 0 1.284 0 2.567 0 3.851-0.023 2.442-0.023 4.876 0 7.303-0.019 0.534-0.064 1.065-0.133 1.593-0.148-0.949-0.237-1.923-0.266-2.921-0.077-3.747 0.056-7.465 0.398-11.154z"></path>
<path d="M5.112 9.494c0 4.559 0 9.118 0 13.676 0.221 0 0.443 0 0.664 0-0.103 0.086-0.236 0.13-0.398 0.133-0.203-0.019-0.336-0.107-0.398-0.266-0.044-4.537 0-9.052 0.133-13.544z"></path>
<path d="M16 11.087c0.044 0 0.089 0 0.133 0-0.044 3.962 0 7.901 0.133 11.817-0.163 0.661-0.163 1.325 0 1.992 0.22-0.529 0.508-1.016 0.863-1.461 0.236-0.304 0.524-0.525 0.863-0.664-0.691 0.691-1.223 1.488-1.593 2.39-0.133 0-0.266 0-0.398 0 0-4.692 0-9.383 0-14.075z"></path>
<path d="M16.531 9.892c-0.066 0.263-0.132 0.529-0.199 0.797-0.066 4.072-0.089 8.144-0.066 12.216-0.133-3.916-0.177-7.856-0.133-11.817-0.007-0.464 0.126-0.862 0.398-1.195z"></path>
<path d="M15.203 10.025c0.188 0.335 0.321 0.689 0.398 1.062 0 0.044 0 0.089 0 0.133 0.044 4.648 0 9.295-0.133 13.942-0.081-0.016-0.125-0.061-0.133-0.133 0.155-4.448 0.177-8.918 0.066-13.411-0.052-0.535-0.118-1.066-0.199-1.593z"></path>
<path d="M26.888 14.805c0.044 0 0.089 0 0.133 0-0.056 1.301 0.055 2.584 0.332 3.851 0.044-0.089 0.089-0.177 0.133-0.266 0.723 0.173 1.453 0.173 2.191 0 0.136-0.113 0.246-0.246 0.332-0.398 0.016 0.381 0.104 0.735 0.266 1.062 0.169-0.551 0.257-1.126 0.266-1.726 0.221 0.502 0.287 1.011 0.199 1.527 0.172 0.093 0.349 0.182 0.531 0.266-0.151 0.63-0.173 1.272-0.066 1.925 0.051 0.074 0.117 0.118 0.199 0.133 0 0.708 0 1.416 0 2.124-0.258-2.597-0.413-2.597-0.465 0-0.053-1.017-0.23-1.017-0.531 0-0.145-0.879-0.278-1.764-0.398-2.656-0.077 0.285-0.143 0.573-0.199 0.863 0.112 0.592 0.156 1.19 0.133 1.793-0.997-0.237-2.015-0.325-3.054-0.266 0-2.744 0-5.488 0-8.232z"></path>
<path d="M4.581 14.805c0.044 0 0.089 0 0.133 0 0.022 2.258 0 4.515-0.066 6.772-0.155 0.442-0.31 0.884-0.465 1.328-0.703 0.132-1.411 0.176-2.124 0.133 0.021 0.226-0.001 0.447-0.066 0.664-0.091-0.247-0.224-0.468-0.398-0.664-0.178 0.095-0.355 0.050-0.531-0.133-0.066 0.485-0.088 0.972-0.066 1.461-0.226 0.004-0.403 0.092-0.531 0.266-0.023-2.427-0.023-4.861 0-7.303 0.105 0.147 0.171 0.324 0.199 0.531 0.044-0.221 0.089-0.443 0.133-0.664 0.044 0.443 0.089 0.885 0.133 1.328 0.367 0.741 0.632 0.697 0.797-0.133 0.128-1.363 0.283-1.319 0.465 0.133 0.664 0 1.328 0 1.992 0-0.022-0.313 0-0.623 0.066-0.929 0.044 0.089 0.089 0.177 0.133 0.266 0.168-1.011 0.234-2.029 0.199-3.054z"></path>
<path d="M25.959 8.697c0.177 0 0.354 0 0.531 0 0.206 0.505 0.339 1.036 0.398 1.593 0 1.505 0 3.010 0 4.515 0 2.744 0 5.488 0 8.232-0.044 0-0.089 0-0.133 0 0.022-4.382 0-8.764-0.066-13.145-0.031-0.164-0.097-0.297-0.199-0.398-0.125-0.302-0.302-0.567-0.531-0.797z"></path>
<path d="M31.27 4.979c0.167 0.366 0.278 0.765 0.332 1.195 0.108 6.686 0.086 13.37-0.066 20.050-0.089 0.089-0.177 0.177-0.266 0.266 0.088-1.060 0.133-2.122 0.133-3.187 0-0.708 0-1.416 0-2.124 0-1.416 0-2.833 0-4.249 0-2.833 0-5.665 0-8.498 0.005-1.153-0.039-2.304-0.133-3.452z"></path>
<path d="M4.846 10.29c-0.044 4.272 0 8.521 0.133 12.747 0.062 0.158 0.195 0.247 0.398 0.266 0.163-0.003 0.296-0.047 0.398-0.133 0.182 0.021 0.359-0.001 0.531-0.066 0.198-0.195 0.375-0.394 0.531-0.598 0.177 0 0.354 0 0.531 0 1.41-0.185 2.827-0.318 4.249-0.398 0 0.133 0 0.266 0 0.398 0.563 0.142 0.939 0.496 1.129 1.062 0.272-0.307 0.25-0.594-0.066-0.863 0.256 0.018 0.521 0.040 0.797 0.066 0.089 0 0.177 0 0.266 0 0 0.177 0 0.354 0 0.531 0.25-0.036 0.427 0.053 0.531 0.266 0.070 0.271 0.225 0.493 0.465 0.664 0.013 0.425 0.102 0.823 0.266 1.195 0.269-0.077 0.556-0.077 0.863 0 0.243-0.011 0.42-0.1 0.531-0.266 0.371-0.902 0.902-1.699 1.593-2.39 0.089 0 0.177 0 0.266 0 0.65-0.269 1.314-0.313 1.992-0.133 0.118-0.11 0.162-0.242 0.133-0.398-0.672-0.036-0.65-0.124 0.066-0.266 0.379 0.167 0.778 0.256 1.195 0.266 0.551-0.083 1.104-0.127 1.66-0.133 0 0.133 0 0.266 0 0.398 0.398 0 0.797 0 1.195 0 0.339 0.28 0.738 0.457 1.195 0.531 0.108 0.198 0.285 0.287 0.531 0.266 0.203-0.019 0.336-0.107 0.398-0.266 0.044 0 0.089 0 0.133 0s0.089 0 0.133 0c1.039-0.060 2.057 0.029 3.054 0.266 0.024-0.603-0.021-1.2-0.133-1.793 0.056-0.29 0.122-0.578 0.199-0.863 0.12 0.891 0.253 1.777 0.398 2.656 0.301-1.017 0.479-1.017 0.531 0 0.052-2.597 0.207-2.597 0.465 0-0 1.064-0.044 2.127-0.133 3.187-0.118 0.339-0.162 0.693-0.133 1.062-0.133 0-0.266 0-0.398 0-0.037-0.674-0.17-0.697-0.398-0.066-0.126 0.064-0.259 0.086-0.398 0.066 0.122-0.568 0.078-1.144-0.133-1.726-0.123 0.158-0.168 0.335-0.133 0.531-9.162 0.044-18.324 0-27.485-0.133-0.197-0.325-0.352-0.28-0.465 0.133-0.133 0-0.266 0-0.398 0-0.023 0.493-0.090 0.98-0.199 1.461-0.091-0.099-0.179-0.187-0.266-0.266-0.353-0.347-0.53-0.79-0.531-1.328 0.069-0.529 0.113-1.060 0.133-1.593 0.128-0.173 0.305-0.262 0.531-0.266-0.022-0.489 0-0.976 0.066-1.461 0.176 0.183 0.353 0.228 0.531 0.133 0.175 0.196 0.308 0.417 0.398 0.664 0.066-0.217 0.088-0.438 0.066-0.664 0.714 0.044 1.422-0.001 2.124-0.133 0.155-0.443 0.31-0.886 0.465-1.328 0.066-2.257 0.088-4.514 0.066-6.772-0.044-1.529 0.001-3.033 0.133-4.515z"></path>
<path d="M9.494 21.71c1.468-0.098 2.795 0.256 3.983 1.062-0.276-0.026-0.541-0.048-0.797-0.066 0.317 0.269 0.339 0.556 0.066 0.863-0.189-0.566-0.566-0.92-1.129-1.062 0-0.133 0-0.266 0-0.398-1.422 0.080-2.839 0.213-4.249 0.398 0.658-0.418 1.366-0.684 2.124-0.797z"></path>
<path d="M9.095 21.71c1.207-0.234 2.402-0.124 3.585 0.332 0.414 0.173 0.768 0.417 1.062 0.73-0.089 0-0.177 0-0.266 0-1.188-0.806-2.516-1.16-3.983-1.062-0.133 0-0.266 0-0.398 0z"></path>
<path d="M9.095 21.71c0.133 0 0.266 0 0.398 0-0.759 0.113-1.467 0.379-2.124 0.797-0.177 0-0.354 0-0.531 0 0.678-0.449 1.431-0.714 2.257-0.797z"></path>
<path d="M20.249 21.71c-0.685 0.32-1.349 0.674-1.992 1.062-0.089 0-0.177 0-0.266 0 0.626-0.601 1.379-0.955 2.257-1.062z"></path>
<path d="M20.249 21.71c0.935-0.012 1.864 0.055 2.788 0.199 0.528 0.132 1.014 0.331 1.461 0.598-0.398 0-0.797 0-1.195 0 0-0.133 0-0.266 0-0.398-0.556 0.006-1.109 0.050-1.66 0.133-0.417-0.010-0.816-0.098-1.195-0.266-0.717 0.141-0.739 0.23-0.066 0.266 0.029 0.156-0.015 0.289-0.133 0.398-0.677-0.181-1.341-0.136-1.992 0.133 0.643-0.388 1.307-0.742 1.992-1.062z"></path>
<path d="M20.249 21.71c2.010-0.372 3.824 0.071 5.444 1.328-0.457-0.074-0.856-0.251-1.195-0.531-0.446-0.266-0.933-0.466-1.461-0.598-0.924-0.144-1.854-0.211-2.788-0.199z"></path>
<path d="M6.838 22.506c-0.156 0.203-0.333 0.403-0.531 0.598-0.172 0.065-0.349 0.087-0.531 0.066 0.283-0.325 0.637-0.547 1.062-0.664z"></path>
<path d="M13.743 22.772c0.452 0.319 0.806 0.717 1.062 1.195-0.177-0.133-0.354-0.266-0.531-0.398-0.104-0.213-0.281-0.302-0.531-0.266 0-0.177 0-0.354 0-0.531z"></path>
<path d="M25.693 23.037c0.315 0.157 0.625 0.157 0.929 0-0.062 0.158-0.195 0.247-0.398 0.266-0.246 0.021-0.423-0.067-0.531-0.266z"></path>
<path d="M16 11.087c0 4.692 0 9.383 0 14.075 0.133 0 0.266 0 0.398 0-0.111 0.166-0.288 0.254-0.531 0.266-0.307-0.077-0.594-0.077-0.863 0-0.164-0.372-0.252-0.77-0.266-1.195-0.239-0.171-0.394-0.392-0.465-0.664 0.177 0.133 0.354 0.266 0.531 0.398 0.302 0.28 0.479 0.635 0.531 1.062 0.008 0.072 0.052 0.116 0.133 0.133 0.133-4.646 0.177-9.294 0.133-13.942 0.147-0.008 0.28-0.052 0.398-0.133z"></path>
<path d="M-0.066 23.303c0.044 0 0.089 0 0.133 0 0.029 0.998 0.117 1.972 0.266 2.921 0.001 0.538 0.178 0.981 0.531 1.328-0.018 0.238 0.026 0.459 0.133 0.664 0.125 0.206 0.213 0.427 0.266 0.664-0.351-0.435-0.639-0.921-0.863-1.461-0.228-0.892-0.382-1.777-0.465-2.656 0-0.487 0-0.974 0-1.461z"></path>
<path d="M31.535 26.224c-0.053 0.48-0.186 0.923-0.398 1.328-0.029-0.369 0.015-0.723 0.133-1.062 0.089-0.089 0.177-0.177 0.266-0.266z"></path>
<path d="M30.739 27.552c-0.126 0.188-0.171 0.41-0.133 0.664-0.133 0-0.266 0-0.398 0 0 0.31 0 0.62 0 0.929-0.177 0-0.354 0-0.531 0-9.162 0.022-18.324 0-27.485-0.066-0.201-0.269-0.378-0.246-0.531 0.066-0.159-0.141-0.247-0.318-0.266-0.531 0.118-0.115 0.185-0.248 0.199-0.398-0.188-0.121-0.387-0.121-0.598 0-0.106-0.205-0.151-0.426-0.133-0.664 0.087 0.078 0.175 0.167 0.266 0.266 0.11-0.481 0.176-0.968 0.199-1.461 0.133 0 0.266 0 0.398 0 0.113-0.413 0.268-0.458 0.465-0.133 9.161 0.133 18.323 0.177 27.485 0.133-0.035-0.196 0.009-0.373 0.133-0.531 0.211 0.582 0.255 1.158 0.133 1.726 0.14 0.020 0.272-0.002 0.398-0.066 0.228-0.63 0.361-0.608 0.398 0.066z"></path>
<path d="M30.739 27.552c0.133 0 0.266 0 0.398 0-0.176 0.619-0.486 1.151-0.929 1.593 0-0.31 0-0.62 0-0.929 0.133 0 0.266 0 0.398 0-0.038-0.254 0.006-0.476 0.133-0.664z"></path>
<path d="M29.676 29.145c0 0.177 0 0.354 0 0.531-0.177 0-0.354 0-0.531 0 0 0.133 0 0.266 0 0.398-0.133 0-0.266 0-0.398 0 0 0.177 0 0.354 0 0.531-0.147 0.146-0.324 0.235-0.531 0.266-1.14 0.344-2.29 0.654-3.452 0.929-0.089 0-0.177 0-0.266 0-5.621 0.022-11.242 0-16.863-0.066-0.908-0.039-1.749-0.26-2.523-0.664-0.575-0.077-1.151-0.144-1.726-0.199-0.879-0.48-1.587-1.144-2.124-1.992-0.052-0.237-0.141-0.458-0.266-0.664 0.211-0.121 0.41-0.121 0.597 0-0.014 0.15-0.081 0.283-0.199 0.398 0.018 0.213 0.107 0.39 0.266 0.531 0.153-0.313 0.33-0.335 0.531-0.066 9.162 0.066 18.324 0.089 27.485 0.066z"></path>
<path d="M29.676 29.145c0.177 0 0.354 0 0.531 0-0.354 0.62-0.841 1.106-1.461 1.461 0-0.177 0-0.354 0-0.531 0.133 0 0.266 0 0.398 0 0-0.133 0-0.266 0-0.398 0.177 0 0.354 0 0.531 0 0-0.177 0-0.354 0-0.531z"></path>
<path d="M28.216 30.871c-1.038 0.68-2.189 0.99-3.452 0.929 1.162-0.275 2.313-0.585 3.452-0.929z"></path>
<path d="M3.386 30.871c0.576 0.055 1.151 0.122 1.726 0.199 0.774 0.404 1.615 0.625 2.523 0.664 5.621 0.066 11.242 0.089 16.863 0.066 0 0.044 0 0.089 0 0.133-5.798 0-11.596 0-17.394 0-0.69-0.106-1.398-0.217-2.124-0.332-0.591-0.141-1.122-0.384-1.593-0.73z"></path>
</symbol>
<symbol id="icon-logotext" viewBox="0 0 176 32">
<path d="M22.176 8.533c0-4.731-3.497-7.406-9.545-7.406h-12.631v29.417h13.33c6.089 0 9.998-2.921 9.998-8.599 0-4.402-2.633-6.665-5.719-7.2v-0.082c2.427-0.823 4.567-2.51 4.567-6.13zM4.896 13.305v-8.023h7.858c2.921 0 4.526 1.44 4.526 4.032s-1.317 3.991-4.814 3.991h-7.57zM4.896 16.967h8.599c3.086 0 4.937 1.687 4.937 4.69 0 2.757-1.275 4.731-5.472 4.731h-8.064v-9.422z"></path>
<path d="M35.89 31.161c-6.583 0-10.574-4.567-10.574-11.109s3.991-11.109 10.574-11.109c6.583 0 10.574 4.567 10.574 11.109s-3.991 11.109-10.574 11.109zM35.89 27.623c4.114 0 6.254-3.25 6.254-7.57 0-4.361-2.139-7.57-6.254-7.57s-6.254 3.209-6.254 7.57c0 4.32 2.139 7.57 6.254 7.57z"></path>
<path d="M58.912 31.161c-6.583 0-10.574-4.567-10.574-11.109s3.991-11.109 10.574-11.109c6.583 0 10.574 4.567 10.574 11.109s-3.991 11.109-10.574 11.109zM58.912 27.623c4.114 0 6.254-3.25 6.254-7.57 0-4.361-2.139-7.57-6.254-7.57s-6.254 3.209-6.254 7.57c0 4.32 2.139 7.57 6.254 7.57z"></path>
<path d="M72.472 1.127v29.417h4.32v-7.611l2.921-2.757 6.624 10.368h5.184l-8.846-13.207 7.982-7.817h-5.307l-8.558 8.434v-16.827h-4.32z"></path>
<path d="M101.935 17.831c-3.045-0.699-5.39-0.864-5.39-3.003 0-1.481 1.399-2.469 3.991-2.469 3.374 0 4.197 1.687 4.485 3.333h4.197c-0.288-3.662-3.003-6.747-8.722-6.747-5.266 0-8.311 2.757-8.311 6.213 0 4.773 4.526 5.431 7.858 6.213 3.086 0.741 5.595 0.946 5.595 3.579 0 1.317-1.275 2.798-4.279 2.798-4.443 0-5.431-1.934-5.637-4.197h-4.197c0.206 4.443 3.127 7.611 9.915 7.611 5.102 0 8.558-2.51 8.558-6.542 0-5.019-4.197-5.883-8.064-6.789z"></path>
<path d="M124.123 8.944c-3.538 0-5.719 1.646-6.83 3.291h-0.082v-11.109h-4.32v29.417h4.32v-12.795c0-3.127 2.263-5.143 5.431-5.143 3.003 0 4.197 1.81 4.197 4.649v13.289h4.361v-14.523c0-4.814-3.086-7.077-7.077-7.077z"></path>
<path d="M144.448 27.623c-3.826 0-6.089-2.921-6.089-6.459h16.128c0-7.488-3.333-12.219-10.121-12.219-6.336 0-10.327 4.279-10.327 11.109 0 6.583 3.991 11.109 10.533 11.109 5.39 0 8.517-3.045 9.586-7.035h-4.32c-0.37 1.275-1.81 3.497-5.39 3.497zM144.366 12.359c3.497 0 5.801 2.345 5.801 5.595h-11.808c0-3.25 2.51-5.595 6.007-5.595z"></path>
<path d="M157.531 1.127v29.417h4.361v-29.417h-4.361z"></path>
<path d="M176.003 4.665v-3.538c-0.864-0.165-1.81-0.288-2.88-0.288-3.456 0-5.349 1.563-5.349 6.007v2.674h-3.003v3.538h3.003v17.486h4.361v-17.486h3.867v-3.538h-3.867v-2.304c0-2.386 1.070-2.674 3.867-2.551z"></path>
</symbol>
</defs>
</svg>
